<svg width="22" height="17" viewBox="0 0 22 17" fill="none" xmlns="http://www.w3.org/2000/svg">
<path d="M18.6239 1.51392C17.2217 0.872122 15.7181 0.399275 14.1459 0.128455C14.1173 0.123229 14.0887 0.136291 14.0739 0.162415C13.8805 0.505509 13.6663 0.953104 13.5163 1.30491C11.8254 1.05238 10.1431 1.05238 8.48679 1.30491C8.33676 0.945284 8.11478 0.505509 7.92053 0.162415C7.90578 0.137162 7.87718 0.1241 7.84855 0.128455C6.27725 0.398409 4.7736 0.871256 3.37052 1.51392C3.35838 1.51914 3.34797 1.52786 3.34106 1.53917C0.488942 5.7896 -0.292371 9.93556 0.0909151 14.0301C0.0926494 14.0501 0.103922 14.0693 0.119532 14.0815C2.00127 15.46 3.82406 16.2968 5.61301 16.8515C5.64164 16.8603 5.67197 16.8498 5.69019 16.8263C6.11337 16.2498 6.49059 15.642 6.81402 15.0028C6.83311 14.9654 6.81489 14.921 6.77588 14.9061C6.17754 14.6797 5.6078 14.4037 5.05975 14.0902C5.0164 14.065 5.01293 14.0031 5.05281 13.9735C5.16814 13.8873 5.2835 13.7976 5.39363 13.707C5.41355 13.6905 5.44131 13.687 5.46474 13.6974C9.06518 15.3372 12.9631 15.3372 16.521 13.6974C16.5445 13.6861 16.5722 13.6896 16.593 13.7062C16.7032 13.7967 16.8185 13.8873 16.9347 13.9735C16.9746 14.0031 16.972 14.065 16.9286 14.0902C16.3806 14.4098 15.8108 14.6797 15.2116 14.9053C15.1726 14.9201 15.1553 14.9654 15.1744 15.0028C15.5047 15.6411 15.882 16.2489 16.2973 16.8254C16.3147 16.8498 16.3459 16.8603 16.3745 16.8515C18.1721 16.2968 19.9949 15.46 21.8766 14.0815C21.8931 14.0693 21.9035 14.051 21.9053 14.031C22.364 9.29723 21.1369 5.18527 18.6525 1.54004C18.6465 1.52786 18.6361 1.51914 18.6239 1.51392ZM7.35169 11.537C6.26771 11.537 5.37454 10.5443 5.37454 9.32511C5.37454 8.10596 6.25039 7.11325 7.35169 7.11325C8.46163 7.11325 9.34616 8.11468 9.32881 9.32511C9.32881 10.5443 8.45296 11.537 7.35169 11.537ZM14.6619 11.537C13.5779 11.537 12.6847 10.5443 12.6847 9.32511C12.6847 8.10596 13.5606 7.11325 14.6619 7.11325C15.7718 7.11325 16.6563 8.11468 16.639 9.32511C16.639 10.5443 15.7718 11.537 14.6619 11.537Z" fill="white"/>
</svg>
