<svg width="21" height="20" viewBox="0 0 21 20" fill="none" xmlns="http://www.w3.org/2000/svg">
<path fill-rule="evenodd" clip-rule="evenodd" d="M9.59143 0.012878C9.52528 0.0220122 9.29978 0.0489742 9.0903 0.0728114C7.34662 0.27104 5.60518 0.997733 4.11911 2.14732C3.6794 2.48745 2.80848 3.35829 2.46627 3.80002C1.3544 5.23514 0.684254 6.8041 0.402861 8.63075C0.310212 9.23237 0.310212 10.7778 0.402861 11.3794C0.851631 14.2929 2.37819 16.7234 4.76055 18.3176C6.08441 19.2035 7.44227 19.7129 9.11035 19.9493C9.65189 20.026 11.1249 20.0134 11.7162 19.927C13.2103 19.7086 14.6459 19.1613 15.8656 18.3451C18.3381 16.6905 19.8584 14.2414 20.2839 11.227C20.351 10.7519 20.3495 9.25179 20.2814 8.76315C19.9269 6.21819 18.7019 3.96131 16.8077 2.3637C15.3762 1.15638 13.5907 0.355211 11.7363 0.0881954C11.3035 0.0258983 9.86296 -0.0247006 9.59143 0.012878ZM8.22119 4.8122L8.33424 4.90466L7.92051 5.03498C7.01178 5.32123 6.11292 5.74229 5.41202 6.20998C5.18599 6.36077 5.0011 6.48973 5.0011 6.4965C5.0011 6.50331 5.22724 6.41185 5.50363 6.2933C7.29783 5.52363 9.29961 5.15193 10.9846 5.27552C12.4673 5.38425 13.8034 5.71028 15.1714 6.29707C15.4429 6.41357 15.6651 6.50331 15.6651 6.4965C15.6651 6.48973 15.4802 6.36069 15.2542 6.20977C14.5535 5.74201 13.6037 5.30044 12.685 5.01547L12.3308 4.90558L12.4445 4.81079C12.5479 4.7245 12.5833 4.71813 12.8387 4.74008C13.87 4.82878 15.018 5.22969 15.9395 5.82297L16.3061 6.05894L16.6029 6.65988C17.572 8.62177 18.1623 10.8448 18.2574 12.8902L18.2826 13.4317L17.9928 13.7115C17.0245 14.6463 15.8356 15.1603 14.3822 15.2725L14.0415 15.2987L13.8779 15.1058C13.788 14.9996 13.5916 14.7605 13.4414 14.5743L13.1684 14.236L13.4847 14.1292C14.1571 13.9022 14.7662 13.5549 15.2347 13.1312C15.617 12.7855 15.5844 12.7552 15.1129 13.0182C13.8804 13.7058 12.6865 14.0903 11.3955 14.2155C10.6875 14.2841 9.23936 14.2421 8.62927 14.1352C8.0233 14.029 7.51235 13.8874 6.93008 13.6643C6.47971 13.4917 5.67826 13.1079 5.37658 12.9202C5.10012 12.7483 5.10898 12.7515 5.15633 12.84C5.17998 12.8841 5.29452 13.006 5.4109 13.1108C5.89643 13.5482 6.51579 13.9062 7.16208 14.1232L7.49732 14.2358L7.17251 14.6344C6.99382 14.8536 6.79566 15.0943 6.73211 15.1694L6.61657 15.3059L6.12082 15.2563C4.72996 15.1171 3.60936 14.6143 2.66977 13.7078L2.3836 13.4317L2.40878 12.8902C2.50387 10.8448 3.0942 8.62177 4.06326 6.65988L4.36009 6.05894L4.72668 5.82297C5.45468 5.35428 6.44054 4.96175 7.24615 4.81977C7.93298 4.6987 8.08099 4.69758 8.22119 4.8122ZM7.50674 9.41753C7.12572 9.54413 6.84008 9.78479 6.65646 10.1339C6.55536 10.3262 6.54509 10.3842 6.54485 10.7663C6.54453 11.2745 6.62259 11.4719 6.95137 11.7943C7.45731 12.2904 8.27198 12.3034 8.8057 11.8239C9.54785 11.1571 9.36228 9.92837 8.45455 9.49926C8.19244 9.37535 7.74884 9.33709 7.50674 9.41753ZM12.4732 9.39975C11.7697 9.58091 11.2868 10.3076 11.4135 10.9946C11.5444 11.7041 12.0843 12.1685 12.7786 12.1685C13.1692 12.1685 13.4626 12.0512 13.7215 11.7917C14.0449 11.4675 14.1217 11.2706 14.1214 10.7663C14.1211 10.3887 14.1102 10.3249 14.0146 10.1435C13.7751 9.689 13.3433 9.40279 12.8626 9.38008C12.7172 9.37318 12.542 9.38204 12.4732 9.39975Z" fill="white"/>
</svg>
