<svg width="1584" height="272" viewBox="0 0 1584 272" fill="none" xmlns="http://www.w3.org/2000/svg">
<g style="mix-blend-mode:screen">
<g style="mix-blend-mode:screen">
<path d="M1570.03 172.805C1571.55 181.332 1583.52 179.022 1583.63 170.969C1583.07 161.614 1567.6 162.088 1570.03 172.805Z" fill="#2D2242"/>
</g>
<g style="mix-blend-mode:screen">
<path d="M1461.59 185.386C1462.25 176.748 1450.08 175.668 1447.88 183.397C1446.18 192.547 1461.32 196.298 1461.59 185.386Z" fill="#2D2242"/>
</g>
<g style="mix-blend-mode:screen">
<path d="M1305.06 223.952C1292.99 217.207 1284.04 236.875 1293.91 245.547C1306.08 254.332 1320.73 231.49 1305.06 223.952Z" fill="#2D2242"/>
</g>
<g style="mix-blend-mode:screen">
<path d="M1241.08 208.722C1235.7 197.63 1218.06 204.765 1220.61 215.752C1224.9 228.198 1248.6 222.262 1241.08 208.722Z" fill="#2D2242"/>
</g>
<g style="mix-blend-mode:screen">
<path d="M1035.67 124.481C1039.71 121.662 1035.67 115.714 1031.14 117.529C1026.3 120.117 1030.54 128.382 1035.67 124.481Z" fill="#2D2242"/>
</g>
<g style="mix-blend-mode:screen">
<path d="M952.935 67.0785C957.493 74.2491 967.575 67.0785 964.733 59.908C960.711 51.673 946.714 58.4514 952.935 67.0785Z" fill="#2D2242"/>
</g>
<g style="mix-blend-mode:screen">
<path d="M850.876 242.738C844.813 239.013 840.399 250.008 845.347 254.755C851.458 259.622 858.733 246.884 850.876 242.738Z" fill="#2D2242"/>
</g>
<g style="mix-blend-mode:screen">
<path d="M702.05 56.2234C695.175 55.3949 694.144 67.586 700.331 69.8941C707.598 71.7287 710.79 56.6377 702.05 56.2234Z" fill="#2D2242"/>
</g>
<g style="mix-blend-mode:screen">
<path d="M923.425 270.735C929.249 275.227 935.905 266.714 931.44 261.5C925.727 255.982 915.744 265.438 923.425 270.735Z" fill="#2D2242"/>
</g>
<g style="mix-blend-mode:screen">
<path d="M858.147 252.738C860.31 247.746 853.017 244.418 850.105 248.633C847.165 253.736 855.734 259.171 858.147 252.738Z" fill="#2D2242"/>
</g>
</g>
<g style="mix-blend-mode:screen">
<g style="mix-blend-mode:screen">
<path d="M882.993 157.898C880.22 164.914 890.564 168.991 894.336 163.028C898.051 155.818 885.905 148.83 882.993 157.898Z" fill="#2D2242"/>
</g>
<g style="mix-blend-mode:screen">
<path d="M821.597 88.8475C824.98 88.5979 824.647 83.6063 821.597 83.3013C817.825 83.024 817.354 89.4021 821.597 88.8475Z" fill="#2D2242"/>
</g>
<g style="mix-blend-mode:screen">
<path d="M755.319 116.107C758.814 119.13 763.278 114.027 760.644 110.561C757.261 106.956 750.799 112.53 755.319 116.107Z" fill="#2D2242"/>
</g>
<g style="mix-blend-mode:screen">
<path d="M730.833 87.5724C725.092 88.4043 726.285 96.8346 731.665 97.1674C737.904 96.8901 738.015 86.1304 730.833 87.5724Z" fill="#2D2242"/>
</g>
<g style="mix-blend-mode:screen">
<path d="M684.494 30.5014C679.863 31.9157 681.915 38.8207 686.435 38.3216C691.566 37.3233 690.262 28.3384 684.494 30.5014Z" fill="#2D2242"/>
</g>
<g style="mix-blend-mode:screen">
<path d="M668.577 8.14989C673.319 6.0146 670.185 -0.945891 665.471 0.107891C660.174 1.74403 662.753 11.0894 668.577 8.14989Z" fill="#2D2242"/>
</g>
<g style="mix-blend-mode:screen">
<path d="M573.015 15.3323C575.345 17.939 579.199 14.5836 577.591 11.755C575.428 8.67687 569.937 12.171 573.015 15.3323Z" fill="#2D2242"/>
</g>
</g>
<g style="mix-blend-mode:screen">
<g style="mix-blend-mode:screen">
<path d="M605.932 119.352C601.356 123.262 607.041 129.973 611.922 127.31C617.274 123.678 611.423 114.11 605.932 119.352Z" fill="#2D2242"/>
</g>
<g style="mix-blend-mode:screen">
<path d="M557.07 103.379C554.297 107.205 559.843 111.365 563.115 108.426C566.581 104.682 560.397 98.3592 557.07 103.379Z" fill="#2D2242"/>
</g>
</g>
<g style="mix-blend-mode:screen">
<g style="mix-blend-mode:screen">
<path d="M586.465 127.698C587.658 134.465 597.558 132.773 597.807 126.395C597.308 119.074 584.413 119.24 586.465 127.698Z" fill="#2D2242"/>
</g>
<g style="mix-blend-mode:screen">
<path d="M560.897 138.097C556.072 132.385 547.697 139.429 550.997 145.529C555.49 152.185 567.386 144.947 560.897 138.097Z" fill="#2D2242"/>
</g>
<g style="mix-blend-mode:screen">
<path d="M496.811 200.937C499.584 206.483 507.542 202.462 506.128 196.971C503.993 190.815 492.9 194.198 496.811 200.937Z" fill="#2D2242"/>
</g>
<g style="mix-blend-mode:screen">
<path d="M467.305 121.348C464.116 123.899 467.859 128.586 471.243 126.894C474.931 124.62 471.132 117.882 467.305 121.348Z" fill="#2D2242"/>
</g>
<g style="mix-blend-mode:screen">
<path d="M376.43 186.738C370.357 182.8 364.505 191.702 369.303 196.444C375.487 201.408 384.527 191.314 376.43 186.738Z" fill="#2D2242"/>
</g>
<g style="mix-blend-mode:screen">
<path d="M319.193 90.6226C321.966 93.7839 326.68 89.7074 324.739 86.2688C322.105 82.5528 315.422 86.7957 319.193 90.6226Z" fill="#2D2242"/>
</g>
<g style="mix-blend-mode:screen">
<path d="M285.694 148.941C286.942 142.396 277.374 140.621 275.017 146.168C272.937 153.1 284.612 157.26 285.694 148.941Z" fill="#2D2242"/>
</g>
<g style="mix-blend-mode:screen">
<path d="M259.543 111.227C255.938 106.374 248.811 111.615 251.224 116.773C254.413 122.319 264.424 117.106 259.543 111.227Z" fill="#2D2242"/>
</g>
<g style="mix-blend-mode:screen">
<path d="M165.923 120.766C167.532 123.816 172.024 121.459 171.137 118.381C169.778 114.915 163.677 116.995 165.923 120.766Z" fill="#2D2242"/>
</g>
<g style="mix-blend-mode:screen">
<path d="M88.0266 51.9375C86.0576 56.6795 93.0182 59.5913 95.7081 55.6535C98.4535 50.7728 90.2728 45.7812 88.0266 51.9375Z" fill="#2D2242"/>
</g>
</g>
<g style="mix-blend-mode:screen">
<g style="mix-blend-mode:screen">
<path d="M669.52 207.175C674.567 204.208 670.241 196.804 665.083 198.551C659.287 201.13 663.363 211.28 669.52 207.175Z" fill="#2D2242"/>
</g>
<g style="mix-blend-mode:screen">
<path d="M616.082 181.829C614.917 186.654 621.989 188.373 623.957 184.214C625.76 179.194 617.191 175.645 616.082 181.829Z" fill="#2D2242"/>
</g>
</g>
<g style="mix-blend-mode:screen">
<g style="mix-blend-mode:screen">
<path d="M143.155 107.981C142.684 101.576 133.283 102.241 132.478 108.176C132.395 115.081 144.209 116.051 143.155 107.981Z" fill="#2D2242"/>
</g>
<g style="mix-blend-mode:screen">
<path d="M22.1363 161.226C28.4036 161.836 29.3464 152.657 23.7725 150.882C17.117 149.579 14.1498 160.865 22.1363 161.226Z" fill="#2D2242"/>
</g>
</g>
<g style="mix-blend-mode:screen">
<g style="mix-blend-mode:screen">
<path d="M89.4125 98.5249C94.1268 98.719 94.4041 91.7862 90.1335 90.7325C85.2529 89.9837 83.4226 98.6358 89.4125 98.5249Z" fill="#2D2242"/>
</g>
</g>
<g style="mix-blend-mode:screen">
<g style="mix-blend-mode:screen">
<path d="M591.04 184.103C580.502 181.801 577.036 197.22 586.187 201.324C597.197 205.04 604.518 186.294 591.04 184.103Z" fill="#2D2242"/>
</g>
</g>
<g style="mix-blend-mode:screen">
<g style="mix-blend-mode:screen">
<path d="M694.754 62.5578C689.846 62.5578 689.929 69.8234 694.394 70.7108C699.662 71.2099 700.883 62.1419 694.754 62.5578Z" fill="#2D2242"/>
</g>
</g>
<g style="mix-blend-mode:screen">
<g style="mix-blend-mode:screen">
<path d="M577.758 107.011C584.635 104.737 581.335 94.6434 574.652 95.3921C567.026 97.0283 569.216 110.367 577.758 107.011Z" fill="#2D2242"/>
</g>
</g>
<g style="mix-blend-mode:screen">
<g style="mix-blend-mode:screen">
<path d="M108.797 114.471C109.573 119.824 117.421 118.742 117.726 113.723C117.532 107.982 107.438 107.761 108.797 114.471Z" fill="#2D2242"/>
</g>
<g style="mix-blend-mode:screen">
<path d="M9.87985 157.898C4.99918 152.768 -2.57142 159.867 0.867241 165.469C5.4706 171.431 16.3689 163.972 9.87985 157.898Z" fill="#2D2242"/>
</g>
</g>
<g style="mix-blend-mode:screen">
<g style="mix-blend-mode:screen">
<path d="M71.3878 142.313C67.9215 148.136 76.4349 153.405 80.7055 148.663C85.2534 142.839 75.4366 134.714 71.3878 142.313Z" fill="#2D2242"/>
</g>
</g>
<g style="mix-blend-mode:screen">
<g style="mix-blend-mode:screen">
<path d="M101.697 170.073C99.1178 162.308 87.8313 166.024 88.58 173.567C90.4103 182.191 105.468 179.723 101.697 170.073Z" fill="#2D2242"/>
</g>
</g>
<g style="mix-blend-mode:screen">
<g style="mix-blend-mode:screen">
<path d="M108.465 217.714C113.484 227.531 127.876 220.21 125.103 210.337C120.971 199.245 101.421 205.651 108.465 217.714Z" fill="#2D2242"/>
</g>
</g>
<g style="mix-blend-mode:screen">
<g style="mix-blend-mode:screen">
<path d="M636.02 230.525C634.828 223.731 624.928 225.423 624.651 231.857C625.122 239.261 638.017 239.039 636.02 230.525Z" fill="#2D2242"/>
</g>
<g style="mix-blend-mode:screen">
<path d="M544.507 131.331C536.798 127.31 530.808 138.597 537.076 143.755C544.868 148.968 554.546 135.907 544.507 131.331Z" fill="#2D2242"/>
</g>
</g>
<g style="mix-blend-mode:screen">
<g style="mix-blend-mode:screen">
<path d="M504.824 104.598C496.92 105.097 497.614 116.661 504.824 117.715C513.42 118.103 514.779 103.406 504.824 104.598Z" fill="#2D2242"/>
</g>
<g style="mix-blend-mode:screen">
<path d="M305.631 129.612C295.814 137.57 307.461 152.018 317.888 146.611C329.286 139.234 317.472 118.824 305.631 129.612Z" fill="#2D2242"/>
</g>
</g>
<g style="mix-blend-mode:screen">
<g style="mix-blend-mode:screen">
<path d="M424.987 112.086C417.776 100.633 400.944 111.143 405.325 122.928C411.703 136.045 434.914 126.062 424.987 112.086Z" fill="#2D2242"/>
</g>
</g>
<g style="mix-blend-mode:screen">
<g style="mix-blend-mode:screen">
<path d="M859.296 138.982C866.44 159.369 896.334 149.038 893.696 129.201C888.586 106.56 848.911 113.759 859.296 138.982Z" fill="#2D2242"/>
</g>
<g style="mix-blend-mode:screen">
<path d="M628.444 150.357C619.707 158.49 631.632 171.348 641.138 165.578C651.414 157.885 638.885 139.422 628.444 150.357Z" fill="#2D2242"/>
</g>
</g>
<g style="mix-blend-mode:screen">
<g style="mix-blend-mode:screen">
<path d="M633.025 128.53C634.411 136.212 645.643 134.243 645.864 127.005C645.421 118.658 630.779 119.074 633.025 128.53Z" fill="#2D2242"/>
</g>
<g style="mix-blend-mode:screen">
<path d="M577.147 70.2117C581.473 80.6386 596.808 74.3714 594.839 64.0554C591.456 52.5193 570.963 57.3168 577.147 70.2117Z" fill="#2D2242"/>
</g>
</g>
<g style="mix-blend-mode:screen">
<g style="mix-blend-mode:screen">
<path d="M435.136 84.937C428.065 92.2858 438.769 102.74 446.617 97.3883C455.075 90.3723 443.594 75.1757 435.136 84.937Z" fill="#2D2242"/>
</g>
<g style="mix-blend-mode:screen">
<path d="M358.099 125.008C355.326 133.993 368.443 138.153 372.686 130.554C376.735 121.237 361.011 113.527 358.099 125.008Z" fill="#2D2242"/>
</g>
<g style="mix-blend-mode:screen">
<path d="M290.463 58.3425C300.363 54.4324 294.678 39.9013 284.917 41.7039C273.824 44.5879 278.234 63.9719 290.463 58.3425Z" fill="#2D2242"/>
</g>
</g>
<g style="mix-blend-mode:screen">
<g style="mix-blend-mode:screen">
<path d="M359.181 97.4437C349.503 91.5093 340.767 105.763 348.449 112.862C358.099 120.35 371.798 104.238 359.181 97.4437Z" fill="#2D2242"/>
</g>
<g style="mix-blend-mode:screen">
<path d="M319.414 147.664C325.127 138.014 311.095 129.611 303.996 137.321C296.758 146.971 312.897 160.254 319.414 147.664Z" fill="#2D2242"/>
</g>
<g style="mix-blend-mode:screen">
<path d="M205.273 105.209C198.091 105.209 197.952 115.663 204.469 117.078C212.15 118.076 214.369 104.876 205.273 105.209Z" fill="#2D2242"/>
</g>
</g>
<g style="mix-blend-mode:screen">
<g style="mix-blend-mode:screen">
<path d="M156.328 130.666C161.597 130.389 161.236 122.652 156.328 121.875C150.698 121.57 149.672 131.359 156.328 130.666Z" fill="#2D2242"/>
</g>
</g>
</svg>
