<svg width="21" height="20" viewBox="0 0 21 20" fill="none" xmlns="http://www.w3.org/2000/svg">
<path fill-rule="evenodd" clip-rule="evenodd" d="M4.96462 0.0574947C3.84467 0.224476 2.95902 0.672573 2.15034 1.48139C1.31862 2.31321 0.862139 3.2419 0.711034 4.40964C0.651905 4.86664 0.651905 15.1309 0.711034 15.5879C0.862139 16.7557 1.31862 17.6843 2.15034 18.5162C2.98206 19.348 3.91064 19.8045 5.07823 19.9556C5.53518 20.0148 15.7982 20.0148 16.2551 19.9556C17.4227 19.8045 18.3513 19.348 19.183 18.5162C20.0148 17.6843 20.4712 16.7557 20.6223 15.5879C20.6815 15.1309 20.6815 4.86664 20.6223 4.40964C20.4712 3.2419 20.0148 2.31321 19.183 1.48139C18.3513 0.649567 17.4227 0.193033 16.2551 0.0419098C15.7547 -0.0228517 5.40762 -0.00859485 4.96462 0.0574947ZM16.6707 1.82406C17.1101 1.9771 17.2086 2.02651 17.5699 2.27524C18.1501 2.67459 18.6061 3.29444 18.8358 3.99631L18.9659 4.39366V9.99878C18.9659 15.3634 18.9628 15.6139 18.8929 15.8383C18.6284 16.6877 18.1787 17.3141 17.5082 17.7677C17.2219 17.9614 16.9702 18.0783 16.5623 18.2071L16.2711 18.299H10.6667H5.06226L4.66495 18.1689C3.57031 17.8105 2.80502 17.0087 2.44044 15.8383C2.37057 15.6139 2.36745 15.3634 2.36745 9.99878C2.36745 4.63412 2.37057 4.38363 2.44044 4.1593C2.71828 3.26729 3.20163 2.61979 3.92723 2.16748C4.23175 1.97769 4.75403 1.77379 5.07858 1.71801C5.177 1.7011 7.74438 1.68981 10.7839 1.6929L16.3102 1.69852L16.6707 1.82406ZM15.822 3.37478C15.5436 3.43509 15.3845 3.52161 15.1974 3.71441C14.9423 3.97732 14.865 4.1813 14.8659 4.58896C14.8665 4.89293 14.8806 4.96695 14.9699 5.13581C15.1853 5.54305 15.5495 5.78123 16.0021 5.8108C16.3324 5.83236 16.5084 5.78444 16.7876 5.59679C17.5648 5.07452 17.4755 3.88284 16.629 3.47997C16.3398 3.34229 16.1101 3.31237 15.822 3.37478ZM10.0275 5.04069C8.1404 5.30228 6.53242 6.6179 5.94506 8.38091C5.7444 8.98322 5.68933 9.33163 5.68933 9.99878C5.68933 10.6664 5.7442 11.0133 5.94584 11.6198C6.41587 13.0335 7.63506 14.2499 9.05671 14.7236C9.65106 14.9216 10.0018 14.9767 10.6667 14.9767C11.3316 14.9767 11.6823 14.9216 12.2767 14.7236C13.6983 14.2499 14.9175 13.0335 15.3875 11.6198C15.5892 11.0133 15.644 10.6664 15.644 9.99878C15.644 9.12333 15.4737 8.40868 15.0952 7.69584C14.3748 6.33936 13.1295 5.407 11.6235 5.09651C11.2477 5.01902 10.3982 4.98929 10.0275 5.04069ZM11.6716 6.82957C12.0881 6.96792 12.2007 7.02209 12.5218 7.23856C13.177 7.68037 13.6208 8.29209 13.8741 9.10212C13.953 9.35452 13.9651 9.47405 13.9651 9.99878C13.9651 10.6435 13.9187 10.8798 13.6912 11.3942C13.4015 12.0494 12.7154 12.7347 12.0583 13.0253C11.5478 13.2511 11.3103 13.2976 10.6667 13.2976C10.0231 13.2976 9.78556 13.2511 9.27511 13.0253C8.61793 12.7347 7.93184 12.0494 7.64213 11.3942C7.41467 10.8798 7.36832 10.6435 7.36832 9.99878C7.36832 9.47405 7.38042 9.35452 7.45931 9.10212C7.59222 8.67703 7.70907 8.43173 7.93325 8.10741C8.37481 7.46863 8.99297 7.02471 9.75061 6.80234C10.134 6.68985 10.1936 6.68379 10.7839 6.69754C11.2483 6.70836 11.354 6.7241 11.6716 6.82957Z" fill="white"/>
</svg>
