<svg width="26" height="20" viewBox="0 0 26 20" fill="none" xmlns="http://www.w3.org/2000/svg">
<path fill-rule="evenodd" clip-rule="evenodd" d="M0.34262 0.233984C0.34262 0.467624 0.344627 0.470432 1.61257 2.00606C2.50123 3.08239 2.89788 3.59996 2.93381 3.73015C2.96832 3.85518 2.98506 5.84665 2.98496 9.80271L2.98471 15.6893L2.86768 15.9356C2.80308 16.0714 2.13404 16.932 1.37528 17.8552C0.0473305 19.4709 0 19.5358 0 19.7394V19.9502H3.71988H7.43976L7.43726 19.7163C7.43477 19.4833 7.42884 19.4751 6.01974 17.7626C4.99066 16.5119 4.58421 15.9822 4.52939 15.8203C4.46346 15.6256 4.45441 14.9771 4.45695 10.619C4.45891 7.22908 4.4757 5.66385 4.50957 5.71414C4.53693 5.75478 6.01035 8.96899 7.78375 12.8568L11.0082 19.9256L11.3903 19.9398L11.7725 19.9538L14.5577 12.8463C16.0896 8.93717 17.3616 5.71744 17.3844 5.69139C17.4072 5.66533 17.4201 8.28989 17.413 11.5237L17.4002 17.4035L16.2831 18.4935L15.166 19.5835L15.1818 19.7792L15.1977 19.9749L20.1045 19.9874L25.0113 20V19.7878C25.0113 19.5771 25.0043 19.5687 23.9787 18.5439C23.4108 17.9765 22.9259 17.4743 22.9012 17.4279C22.829 17.292 22.8424 2.63235 22.9148 2.52491C22.9469 2.47733 23.4428 1.9869 24.0167 1.43509L25.0602 0.431812V0.215906V0H21.6113C18.3764 0 18.1595 0.00536932 18.1172 0.0862048C18.0923 0.133642 16.9881 2.88786 15.6632 6.20674C14.3385 9.52563 13.2391 12.2691 13.2204 12.3033C13.2009 12.3389 11.9877 9.72651 10.3782 6.18275L7.57 0H3.95634H0.34262V0.233984Z" fill="white"/>
</svg>
