<svg width="21" height="20" viewBox="0 0 21 20" fill="none" xmlns="http://www.w3.org/2000/svg">
<path fill-rule="evenodd" clip-rule="evenodd" d="M9.05615 0.0242827C5.92488 0.349687 3.18062 2.05272 1.51356 4.70512C-0.849832 8.46543 -0.408614 13.433 2.57936 16.7046C4.23316 18.5154 6.30144 19.598 8.78174 19.951C9.2448 20.0169 10.7836 20.0161 11.2671 19.9497C13.5324 19.6384 15.5611 18.6344 17.1041 17.0609C17.6105 16.5445 17.7183 16.421 18.0542 15.9733C19.0551 14.6392 19.7104 13.0128 19.9633 11.2353C20.0288 10.7748 20.0288 9.22978 19.9633 8.76951C19.7946 7.58456 19.4879 6.57496 18.9958 5.58477C18.4745 4.53568 17.9395 3.78777 17.1067 2.94388C15.5619 1.37843 13.6277 0.40597 11.4041 0.0767294C10.924 0.00561317 9.53435 -0.0253852 9.05615 0.0242827ZM14.6705 4.08276C15.058 4.27912 15.2465 4.63427 15.2096 5.09862C15.1748 5.53695 14.8965 5.8645 14.4482 5.99484C13.8903 6.15703 13.2746 5.7647 13.1643 5.17663C13.1493 5.09694 13.1258 5.0317 13.1121 5.0317C13.0983 5.03166 12.6379 4.93483 12.089 4.81643C11.5401 4.69803 11.0642 4.6012 11.0315 4.60116C10.9848 4.60116 10.9025 4.92805 10.6497 6.11781C10.4724 6.95199 10.3274 7.6565 10.3276 7.68339C10.3277 7.71674 10.3993 7.73255 10.5528 7.73302C10.8683 7.73404 11.521 7.83173 11.9665 7.94464C12.7194 8.13549 13.4559 8.44618 13.9793 8.79373L14.2062 8.94442L14.4039 8.80841C14.8995 8.46751 15.5834 8.46661 16.061 8.80626C16.4673 9.09511 16.6781 9.50243 16.68 10.0024C16.6819 10.5008 16.4633 10.9191 16.0519 11.2039L15.8464 11.3461V11.7639C15.8464 12.0549 15.8224 12.2756 15.7673 12.4913C15.3423 14.1547 13.481 15.4587 11.0792 15.7758C10.5237 15.8491 9.49776 15.8498 8.95255 15.7772C6.85147 15.4975 5.13873 14.4577 4.46897 13.0553C4.26428 12.6265 4.2139 12.4014 4.19774 11.8427L4.18247 11.3151L4.05147 11.2479C3.84368 11.1413 3.53343 10.7734 3.43828 10.5209C3.36798 10.3344 3.35624 10.2357 3.36943 9.94369C3.389 9.50951 3.4744 9.30188 3.75554 9.00458C4.0341 8.71009 4.30596 8.58496 4.71645 8.56242C5.08953 8.54191 5.3318 8.60727 5.63247 8.80962L5.82672 8.94035L6.0322 8.80172C6.89605 8.21901 8.45904 7.73611 9.49126 7.73302C9.63588 7.73259 9.74621 7.7129 9.76923 7.68339C9.79025 7.6565 9.96974 6.8507 10.1681 5.89276C10.5452 4.07212 10.5634 4.01407 10.7586 4.01407C10.7971 4.01407 11.3685 4.12938 12.0285 4.27032L13.2284 4.52652L13.4074 4.32738C13.7682 3.92613 14.1975 3.84299 14.6705 4.08276ZM7.36584 10.0641C7.12548 10.1528 6.86971 10.3964 6.76747 10.634C6.66281 10.8773 6.66861 11.2649 6.78035 11.4956C6.86888 11.6783 7.08626 11.8957 7.26901 11.9842C7.49965 12.096 7.88729 12.1018 8.13058 11.9971C8.48276 11.8456 8.76217 11.4352 8.76217 11.0695C8.76217 10.6902 8.52929 10.2981 8.20365 10.1292C7.96796 10.007 7.59848 9.97825 7.36584 10.0641ZM12.0135 10.048C11.5924 10.1689 11.268 10.6098 11.2673 11.062C11.2667 11.4347 11.5432 11.8441 11.8987 11.9971C12.142 12.1018 12.5296 12.096 12.7603 11.9842C12.943 11.8957 13.1604 11.6783 13.2489 11.4956C13.3607 11.2649 13.3665 10.8773 13.2618 10.634C13.0586 10.1617 12.5116 9.90494 12.0135 10.048ZM7.57371 13.4104C7.41425 13.5358 7.43327 13.6982 7.62858 13.8785C8.30377 14.5019 9.93107 14.7444 11.2671 14.4208C11.6694 14.3233 12.1655 14.092 12.3944 13.895C12.5416 13.7684 12.5614 13.7327 12.551 13.6121C12.5428 13.5172 12.507 13.4501 12.4362 13.3975C12.3132 13.3061 12.2319 13.3249 12.024 13.4928C11.4534 13.9536 10.1917 14.147 9.10816 13.9397C8.60601 13.8436 8.30804 13.7162 7.9051 13.4253C7.74318 13.3084 7.70553 13.3067 7.57371 13.4104Z" fill="white"/>
</svg>
