<svg width="245" height="248" viewBox="0 0 245 248" fill="none" xmlns="http://www.w3.org/2000/svg">
<g filter="url(#filter0_d_179_801)">
<path d="M76.0137 99.2782C73.6137 108.538 73.6736 118.388 74.5736 127.848C75.5736 138.798 80.2136 149.918 89.1336 156.358C95.4337 160.908 103.134 162.568 109.904 166.168C116.904 169.878 123.694 171.168 131.724 171.388C140.454 171.688 148.044 169.668 154.434 163.598C158.274 159.938 162.204 156.178 164.504 151.398C173.214 133.398 163.844 108.548 152.504 93.5582C148.621 88.4313 143.794 84.0935 138.284 80.7782C125.974 73.3682 108.864 71.7782 95.4936 77.2782C86.3036 81.0882 78.8637 88.2782 76.0137 99.2782Z" fill="#FFF5D4"/>
<path d="M98.3237 79.5282C111.694 74.0182 128.804 75.6082 141.114 83.0182C146.625 86.3335 151.451 90.6713 155.334 95.7983C166.644 110.798 176.014 135.598 167.334 153.648C165.034 158.418 161.104 162.188 157.264 165.838C150.874 171.908 143.264 173.928 134.554 173.638C126.554 173.368 119.724 172.128 112.734 168.418C105.954 164.818 98.2637 163.158 91.9637 158.608C83.0437 152.158 78.4436 141.048 77.4036 130.098C76.5036 120.628 76.4037 110.778 78.8437 101.518C81.6637 90.5282 89.1037 83.3082 98.3237 79.5282Z" fill="url(#paint0_radial_179_801)"/>
<g style="mix-blend-mode:screen">
<path d="M119.204 109.108C118.508 105.689 117.559 102.327 116.364 99.0485C115.174 95.8485 113.364 93.0485 111.944 90.0485C110.274 86.4385 105.224 82.1984 101.004 82.2684C98.4937 82.2684 96.6337 83.7885 94.5937 84.9885C92.1145 86.3377 89.7704 87.9216 87.5937 89.7184C82.5137 94.1584 80.2037 101.498 78.9837 107.948C78.0637 112.838 78.6537 117.438 79.3637 122.308C80.4797 131.115 82.9488 139.696 86.6836 147.748C87.5007 149.622 88.538 151.391 89.7736 153.018C92.4436 156.328 96.3437 158.278 100.224 159.808C101.814 160.621 103.63 160.878 105.384 160.538C107.589 160.222 109.676 159.344 111.444 157.988C112.408 157.028 113.03 155.777 113.214 154.428C114.134 149.918 113.364 145.148 114.584 140.708C115.464 137.538 117.304 134.708 118.534 131.708C121.394 124.578 120.764 116.578 119.204 109.108Z" fill="#482702"/>
</g>
<g style="mix-blend-mode:multiply">
<path d="M149.404 93.6384C145.704 89.8316 141.47 86.5841 136.834 83.9984C134.447 82.6963 131.93 81.6505 129.324 80.8784C127.992 80.4789 126.636 80.1682 125.264 79.9484C123.984 79.7384 122.454 79.9484 121.264 79.3984C123.837 80.5739 126.258 82.0581 128.474 83.8184C130.354 85.2384 132.374 86.1584 134.034 87.8184C138.083 91.9305 141.57 96.5607 144.404 101.588C147.494 107.038 149.834 113.078 149.914 119.338C149.98 123.891 148.83 128.378 146.584 132.338C143.984 136.898 140.104 139.398 136.074 142.558C132.944 145.018 131.744 147.688 131.234 151.558C130.974 153.478 130.68 155.392 130.354 157.298C130.074 158.918 130.064 161.298 129.134 162.678C127.504 165.128 123.214 165.888 120.584 166.438C118.657 166.753 116.696 166.814 114.754 166.618C115.694 166.618 117.884 168.978 118.954 169.438C121.244 170.438 123.954 170.438 126.424 170.708C129.604 171.078 132.824 171.508 136.024 171.708C138.255 171.913 140.506 171.747 142.684 171.218C144.586 170.637 146.377 169.742 147.984 168.568C153.108 164.946 157.043 159.886 159.294 154.028C160.294 151.358 161.504 147.938 161.364 145.028C161.294 143.458 160.874 142.138 161.104 140.508C161.412 138.853 161.816 137.217 162.314 135.608C163.774 130.129 164.043 124.401 163.104 118.808C161.474 109.228 156.334 100.588 149.404 93.6384Z" fill="#F2CFF1"/>
</g>
<path d="M129.893 137.248C133.983 139.088 137.893 139.438 140.273 136.148C143.291 131.843 145.27 126.897 146.054 121.698C146.804 115.698 144.774 109.758 142.054 104.398C140.723 101.481 138.819 98.8624 136.454 96.6981C129.224 90.6381 118.624 95.2681 113.684 101.908C110.154 106.658 108.154 113.608 110.254 119.328C111.844 123.658 115.434 125.868 118.634 128.858C122.074 132.058 125.553 135.298 129.893 137.248Z" fill="#AA044A"/>
<path d="M122.204 152.859C123.204 155.009 123.814 157.709 122.394 159.599C121.814 160.251 121.09 160.759 120.279 161.082C119.468 161.405 118.593 161.534 117.724 161.458C114.164 161.398 112.264 159.518 109.424 157.748C105.77 155.468 102.104 153.192 98.4236 150.919C96.9994 150.091 95.6596 149.127 94.4236 148.039C93.7566 147.5 93.2144 146.824 92.8346 146.055C92.4548 145.287 92.2463 144.445 92.2236 143.589C92.3577 142.651 92.7479 141.768 93.3513 141.037C93.9547 140.307 94.7478 139.757 95.6436 139.448C101.804 136.968 108.544 138.688 113.814 142.448C117.492 145.105 120.389 148.7 122.204 152.859Z" fill="#AA044A"/>
<path d="M151.104 160.238C153.06 158.027 154.163 155.19 154.214 152.238C154.214 150.238 153.504 147.618 151.214 147.328C150.051 147.32 148.922 147.712 148.014 148.438C144.504 150.718 137.604 155.318 136.654 159.778C136.51 160.769 136.648 161.779 137.051 162.695C137.454 163.611 138.106 164.395 138.934 164.958C141.934 167.178 149.024 162.578 151.104 160.238Z" fill="#AA044A"/>
<path d="M84.2037 111.528C84.7463 111.091 85.158 110.514 85.3937 109.858L91.6138 95.0282C92.0738 93.9382 92.5338 92.8481 92.9838 91.7581C93.2088 91.3645 93.2934 90.9062 93.2237 90.4581C93.0916 90.1314 92.8412 89.8666 92.5223 89.7164C92.2035 89.5663 91.8398 89.5419 91.5038 89.6481C90.8341 89.8824 90.2469 90.3063 89.8137 90.8682C85.2137 95.8682 80.8138 104.788 83.2638 111.728C83.4258 111.761 83.5929 111.761 83.7546 111.726C83.9164 111.692 84.0693 111.624 84.2037 111.528V111.528Z" fill="#AA044A"/>
<path d="M163.204 121.048C163.204 121.458 162.984 121.938 162.594 122.048C162.452 122.049 162.313 122.02 162.183 121.963C162.054 121.906 161.938 121.823 161.844 121.718C161.048 120.87 160.408 119.888 159.954 118.818C158.884 116.658 157.794 114.408 157.804 111.998C157.785 111.85 157.799 111.699 157.846 111.557C157.892 111.415 157.97 111.286 158.074 111.178C158.454 110.868 159.024 111.178 159.384 111.548C161.724 113.808 163.644 117.708 163.204 121.048Z" fill="#AA044A"/>
</g>
<defs>
<filter id="filter0_d_179_801" x="0" y="0" width="244.735" height="247.665" filterUnits="userSpaceOnUse" color-interpolation-filters="sRGB">
<feFlood flood-opacity="0" result="BackgroundImageFix"/>
<feColorMatrix in="SourceAlpha" type="matrix" values="0 0 0 0 0 0 0 0 0 0 0 0 0 0 0 0 0 0 127 0" result="hardAlpha"/>
<feOffset/>
<feGaussianBlur stdDeviation="37"/>
<feComposite in2="hardAlpha" operator="out"/>
<feColorMatrix type="matrix" values="0 0 0 0 0.996078 0 0 0 0 0.67451 0 0 0 0 0.254902 0 0 0 0.35 0"/>
<feBlend mode="normal" in2="BackgroundImageFix" result="effect1_dropShadow_179_801"/>
<feBlend mode="normal" in="SourceGraphic" in2="effect1_dropShadow_179_801" result="shape"/>
</filter>
<radialGradient id="paint0_radial_179_801" cx="0" cy="0" r="1" gradientUnits="userSpaceOnUse" gradientTransform="translate(86.586 118.063) rotate(-114.75) scale(93.41)">
<stop stop-color="#FFA23F"/>
<stop offset="0.11" stop-color="#F99240"/>
<stop offset="0.32" stop-color="#E86841"/>
<stop offset="0.62" stop-color="#CE2444"/>
<stop offset="0.73" stop-color="#C30945"/>
<stop offset="0.77" stop-color="#C60F43"/>
<stop offset="0.84" stop-color="#D01F3C"/>
<stop offset="0.91" stop-color="#E13B30"/>
<stop offset="0.98" stop-color="#F76020"/>
<stop offset="1" stop-color="#FD6A1C"/>
</radialGradient>
</defs>
</svg>
