<svg width="273" height="263" viewBox="0 0 273 263" fill="none" xmlns="http://www.w3.org/2000/svg">
<g filter="url(#filter0_d_179_58)">
<path d="M189.275 115.37C187.833 108.287 185.305 97.8459 179.054 93.6133C165.33 84.3338 147.755 82.1623 131.562 83.3244C118.262 84.2914 108.584 89.1008 100.73 96.7856C92.875 104.47 84.9103 114.802 85.9027 126.346C87.1835 141.224 97.167 149.129 107.346 158.341C113.97 164.329 119.577 171.59 127.525 175.958C128.152 176.298 128.789 176.628 129.442 176.925C143.598 183.541 162.87 181.921 175.882 173.371C183.168 168.587 187.587 161.903 188.817 153.319C190.641 140.825 191.82 127.847 189.275 115.37Z" fill="#FFF5D4"/>
<path d="M96.9468 95.7591C104.801 88.0742 114.479 83.2648 127.78 82.2978C143.972 81.1019 161.547 83.3072 175.271 92.5867C181.523 96.8278 184.05 107.252 185.45 114.344C187.994 126.821 186.815 139.79 185.017 152.293C183.787 160.877 179.368 167.561 172.082 172.345C159.07 180.895 139.799 182.523 125.642 175.899C124.989 175.593 124.353 175.271 123.717 174.932C115.777 170.563 110.145 163.303 103.546 157.314C93.3673 148.103 83.3584 140.197 82.0776 125.319C81.1276 113.775 89.0669 103.469 96.9468 95.7591Z" fill="url(#paint0_radial_179_58)"/>
<g style="mix-blend-mode:multiply">
<path d="M173.176 99.8044C168.146 95.2664 161.852 93.2986 153.93 96.1316C150.158 97.5048 146.928 100.054 144.717 103.404C142.505 106.753 141.429 110.725 141.648 114.733C142.089 121.281 145.397 127.032 149.409 132.223C147.636 133.58 145.694 134.709 143.921 136.066C139.069 133.038 133.021 132.376 127.364 133.182C121.706 133.988 116.337 136.159 111.095 138.475C109.739 138.974 108.5 139.748 107.456 140.748C105.887 142.444 105.641 145.116 106.252 147.372C106.984 149.602 108.082 151.694 109.5 153.564C103.699 150.384 98.4735 146.779 94.3257 141.689C91.5096 138.161 88.685 134.59 86.9886 130.425C83.9859 122.85 87.0734 116.489 91.6708 110.441C95.7761 105.038 100 99.5245 105.717 95.8602C117.168 88.5401 130.926 85.8682 144.498 85.7749C147.616 85.6631 150.738 85.822 153.828 86.2499C164.346 88.0142 184.016 93.8245 180.089 108.677C178.255 105.381 175.923 102.388 173.176 99.8044Z" fill="#F2CFF1"/>
</g>
<g style="mix-blend-mode:screen">
<path d="M144.854 144.056C139.969 146.253 134.828 147.924 130.197 150.655C123.335 154.659 119.849 165.296 125.685 171.615C137.695 184.635 162.531 176.289 173.626 166.721C181.921 159.57 183.957 148.06 184.059 137.525C184.059 133.403 184.441 121.349 179.054 119.712C175.068 118.533 168.876 128.424 165.865 130.833C159.433 136.089 152.376 140.53 144.854 144.056Z" fill="#482702"/>
</g>
<path d="M150.52 101.883C147.814 104.784 146.703 108.855 146.533 112.808C146.109 122.859 152.225 133.394 161.869 136.236C167.374 137.864 174.202 136.448 177.137 131.52C178.545 129.179 178.927 126.363 179.003 123.631C179.147 118.304 178.197 112.85 175.525 108.245C170.894 100.229 158.239 93.6383 150.52 101.883Z" fill="#AA044A"/>
<path d="M148.909 172.056C153.531 171.013 158.239 168.511 159.851 164.227C161.038 161.064 160.317 157.442 158.629 154.498C156.941 151.555 154.388 149.197 151.708 147.042C145.855 142.267 139.052 138.221 131.495 137.356C123.937 136.491 115.557 139.434 111.841 145.889C108.542 151.64 117.974 160.69 122.368 164.719C125.904 167.942 130.15 170.286 134.761 171.561C139.372 172.836 144.219 173.006 148.909 172.056Z" fill="#AA044A"/>
<path d="M94.9874 121.562C94.4784 119.56 93.9865 117.448 94.5293 115.463C95.2333 112.919 97.5235 111.078 99.8901 109.865C103.947 107.8 108.526 106.985 113.046 107.524C115.564 107.721 117.964 108.673 119.933 110.255C121.808 111.952 122.885 114.657 122.096 117.041C121.426 119.068 119.62 120.434 117.906 121.732L112.104 126.057C109.399 128.068 103.978 132.987 100.229 131.902C96.7686 130.858 95.7253 124.48 94.9874 121.562Z" fill="#AA044A"/>
</g>
<defs>
<filter id="filter0_d_179_58" x="0" y="0" width="272.739" height="263" filterUnits="userSpaceOnUse" color-interpolation-filters="sRGB">
<feFlood flood-opacity="0" result="BackgroundImageFix"/>
<feColorMatrix in="SourceAlpha" type="matrix" values="0 0 0 0 0 0 0 0 0 0 0 0 0 0 0 0 0 0 127 0" result="hardAlpha"/>
<feOffset/>
<feGaussianBlur stdDeviation="41"/>
<feComposite in2="hardAlpha" operator="out"/>
<feColorMatrix type="matrix" values="0 0 0 0 0.737255 0 0 0 0 0.0509804 0 0 0 0 0.254902 0 0 0 1 0"/>
<feBlend mode="normal" in2="BackgroundImageFix" result="effect1_dropShadow_179_58"/>
<feBlend mode="normal" in="SourceGraphic" in2="effect1_dropShadow_179_58" result="shape"/>
</filter>
<radialGradient id="paint0_radial_179_58" cx="0" cy="0" r="1" gradientUnits="userSpaceOnUse" gradientTransform="translate(5308.91 7677.19) scale(13666.3 12762.5)">
<stop stop-color="#FFA23F"/>
<stop offset="0.11" stop-color="#F99240"/>
<stop offset="0.32" stop-color="#E86841"/>
<stop offset="0.62" stop-color="#CE2444"/>
<stop offset="0.73" stop-color="#C30945"/>
<stop offset="0.77" stop-color="#C60F43"/>
<stop offset="0.84" stop-color="#D01F3C"/>
<stop offset="0.91" stop-color="#E13B30"/>
<stop offset="0.98" stop-color="#F76020"/>
<stop offset="1" stop-color="#FD6A1C"/>
</radialGradient>
</defs>
</svg>
