<svg width="231" height="241" viewBox="0 0 231 241" fill="none" xmlns="http://www.w3.org/2000/svg">
<g filter="url(#filter0_d_190_4323)">
<path d="M134.056 152.417C138.459 150.221 144.879 146.72 146.561 141.863C150.245 131.204 148.576 119.265 144.959 108.822C141.98 100.247 137.112 94.7309 130.675 90.9202C124.238 87.1095 116.041 83.6925 108.625 86.379C99.0681 89.8425 95.629 97.8 91.3652 106.116C88.5947 111.527 84.8083 116.493 83.3362 122.489C83.2237 122.961 83.1183 123.438 83.0382 123.92C81.182 134.394 85.6428 146.78 93.5573 153.83C97.9868 157.778 103.16 159.506 109.021 158.803C117.558 157.8 126.3 156.289 134.056 152.417Z" fill="#FFF5D4"/>
<path d="M130.684 88.2525C137.121 92.0632 141.988 97.5797 144.967 106.155C148.607 116.591 150.253 128.536 146.569 139.196C144.882 144.053 138.473 147.552 134.057 149.722C126.301 153.593 117.565 155.103 109.027 156.124C103.166 156.827 97.9923 155.099 93.5629 151.151C85.6483 144.102 81.182 131.717 83.0437 121.241C83.1294 120.757 83.2293 120.282 83.3403 119.804C84.8138 113.814 88.5958 108.831 91.3708 103.437C95.6345 95.1211 99.0692 87.1469 108.626 83.6834C116.05 81.0248 124.225 84.4295 130.684 88.2525Z" fill="url(#paint0_radial_190_4323)"/>
<g style="mix-blend-mode:multiply">
<path d="M141.454 139.091C143.551 134.984 143.736 130.498 140.478 125.788C138.91 123.55 136.665 121.875 134.073 121.011C131.48 120.147 128.679 120.14 126.082 120.989C121.854 122.433 118.656 125.622 115.949 129.174C114.744 128.248 113.66 127.169 112.456 126.243C113.592 122.519 112.961 118.426 111.435 114.848C109.908 111.269 107.534 108.121 105.088 105.083C104.521 104.279 103.793 103.601 102.952 103.09C101.56 102.357 99.76 102.666 98.384 103.466C97.0471 104.34 95.8646 105.431 94.8848 106.693C95.9542 102.317 97.404 98.2464 100.02 94.6223C101.844 92.1489 103.694 89.6625 106.134 87.8132C110.585 84.5042 115.312 85.4136 120.099 87.371C124.375 89.1185 128.745 90.9246 132.162 94.0382C138.992 100.278 143.173 108.854 145.626 117.761C146.249 119.792 146.694 121.873 146.957 123.98C147.651 131.207 147.296 145.165 136.838 145.199C138.682 143.413 140.239 141.352 141.454 139.091Z" fill="#F2CFF1"/>
</g>
<g style="mix-blend-mode:screen">
<path d="M107.366 128.264C105.061 125.438 103.057 122.353 100.445 119.789C96.6032 115.982 88.9949 115.564 85.8679 120.514C79.4227 130.706 89.2867 145.566 97.5328 151.176C103.696 155.37 111.623 154.681 118.569 152.892C121.279 152.166 129.272 150.293 129.399 146.463C129.472 143.634 121.878 141.305 119.764 139.749C115.174 136.446 111.01 132.588 107.366 128.264Z" fill="#482702"/>
</g>
<path d="M136.096 124.559C133.712 123.291 130.839 123.278 128.21 123.863C121.526 125.355 115.676 131.232 115.507 138.074C115.406 141.981 117.54 146.221 121.298 147.283C123.085 147.796 125.004 147.551 126.814 147.12C130.342 146.276 133.761 144.691 136.318 142.122C140.773 137.665 142.877 128.182 136.096 124.559Z" fill="#AA044A"/>
<path d="M89.6694 135.862C91.1699 138.718 93.6447 141.373 96.7452 141.678C99.0348 141.901 101.289 140.789 102.927 139.16C104.565 137.532 105.666 135.438 106.61 133.296C108.719 128.606 110.181 123.42 109.419 118.298C108.656 113.176 105.244 108.184 100.345 106.878C95.9821 105.722 91.6928 113.519 89.8177 117.118C88.3213 120.01 87.5281 123.215 87.5023 126.472C87.4766 129.729 88.219 132.946 89.6694 135.862Z" fill="#AA044A"/>
<path d="M113.372 91.5095C114.598 90.8222 115.901 90.1266 117.301 90.1338C119.099 90.1484 120.712 91.33 121.927 92.6724C124 94.9763 125.342 97.8433 125.784 100.911C126.098 102.601 125.895 104.347 125.202 105.921C124.417 107.452 122.827 108.637 121.121 108.538C119.67 108.455 118.454 107.508 117.298 106.61L113.432 103.557C111.633 102.132 107.443 99.4346 107.497 96.7781C107.573 94.3187 111.583 92.5088 113.372 91.5095Z" fill="#AA044A"/>
</g>
<defs>
<filter id="filter0_d_190_4323" x="0.619507" y="0.738281" width="230.026" height="240.218" filterUnits="userSpaceOnUse" color-interpolation-filters="sRGB">
<feFlood flood-opacity="0" result="BackgroundImageFix"/>
<feColorMatrix in="SourceAlpha" type="matrix" values="0 0 0 0 0 0 0 0 0 0 0 0 0 0 0 0 0 0 127 0" result="hardAlpha"/>
<feOffset/>
<feGaussianBlur stdDeviation="41"/>
<feComposite in2="hardAlpha" operator="out"/>
<feColorMatrix type="matrix" values="0 0 0 0 0.737255 0 0 0 0 0.0509804 0 0 0 0 0.254902 0 0 0 1 0"/>
<feBlend mode="normal" in2="BackgroundImageFix" result="effect1_dropShadow_190_4323"/>
<feBlend mode="normal" in="SourceGraphic" in2="effect1_dropShadow_190_4323" result="shape"/>
</filter>
<radialGradient id="paint0_radial_190_4323" cx="0" cy="0" r="1" gradientUnits="userSpaceOnUse" gradientTransform="translate(-3936.18 4851.14) rotate(75) scale(9303.28 8688)">
<stop stop-color="#FFA23F"/>
<stop offset="0.11" stop-color="#F99240"/>
<stop offset="0.32" stop-color="#E86841"/>
<stop offset="0.62" stop-color="#CE2444"/>
<stop offset="0.73" stop-color="#C30945"/>
<stop offset="0.77" stop-color="#C60F43"/>
<stop offset="0.84" stop-color="#D01F3C"/>
<stop offset="0.91" stop-color="#E13B30"/>
<stop offset="0.98" stop-color="#F76020"/>
<stop offset="1" stop-color="#FD6A1C"/>
</radialGradient>
</defs>
</svg>
