<?xml version="1.0" encoding="utf-8"?>
<!-- Generator: Adobe Illustrator 24.1.2, SVG Export Plug-In . SVG Version: 6.00 Build 0)  -->
<svg version="1.1" id="Слой_1" xmlns="http://www.w3.org/2000/svg" xmlns:xlink="http://www.w3.org/1999/xlink" x="0px" y="0px"
	 viewBox="0 0 206 772" style="enable-background:new 0 0 206 772;" xml:space="preserve">
<style type="text/css">
	.st0{fill-rule:evenodd;clip-rule:evenodd;fill:#CDCDCD;}
	.st1{fill:url(#SVGID_1_);}
	.st2{fill:url(#SVGID_2_);}
</style>
<path class="st0" d="M174.5,443.1c0,3.9-1.2,7.6-3.5,10.7h0c0.8-2.1,1.3-4.3,1.3-6.7v-16.5c0-1-0.1-1.9-0.2-2.9l-13.9,3.5v-2.3
	l16.4-2.9c0,0.2,0,0.4,0,0.6V443.1z M166.7,457.5c-0.5,0.9-1.1,1.6-1.7,2.4c-1.4-0.1-2.9-0.1-4.3-0.2l3.9-4.3h3.2
	C167.5,456.1,167.1,456.8,166.7,457.5z M167.3,464.4c0.4,1.1,0.7,2.2,0.8,3.1c0,0.2,0.1,0.5,0.1,0.7l-4.9-0.1c0-0.2,0-0.4,0-0.6
	c0.1-0.9,0-2.1-0.3-3.3c-0.2-1.2-0.8-2.4-1.3-3.2c0,0,0,0,0-0.1c1.1,0,2.1-0.1,3.2-0.1l-0.1,0.2c0,0,0.1,0,0.3,0.2
	c0.2,0.1,0.4,0.3,0.7,0.6C166.3,462.4,166.9,463.3,167.3,464.4z M139.1,467.6l1.3-6.7c2.3,0.1,4.5,0.1,6.8,0.1c1.1,0,2.3,0,3.4,0
	l1.4,6.7l1.4-6.7c0.9,0,1.8,0,2.7,0c1.2,0,2.3-0.1,3.5-0.1l0,0c0,0,0.1,0,0.3,0.2c0.2,0.1,0.4,0.3,0.7,0.6c0.6,0.6,1.2,1.5,1.6,2.6
	c0.4,1.1,0.7,2.2,0.8,3.1c0,0.2,0,0.4,0.1,0.6L139.1,467.6z M127,455.9c-0.3-1.1-0.4-2.1-0.5-3.2c-0.1-1,0-2,0-3.1
	c0.2-1.1,0.3-2.1,0.4-2.9c0-0.2,0.1-0.5,0.1-0.7l-0.1,0.2c0-0.2,0-0.4,0-0.6h12.5v-0.8l0.8,0l0.2-4.7c0.3,0.4,0.5,0.7,0.8,1.1
	c0.4,0.6,0.8,1.2,1.1,1.9c0.4,0.6,0.6,1.3,0.9,2c0.6,1.3,1,2.7,1.4,4.1c0.3,1.2,0.6,2.4,0.8,3.6c-2.9,0.8-5.9,1.7-8.8,2.6
	c-3,0.9-5.9,1.9-8.9,2.8c0-0.1-0.1-0.2-0.1-0.2c-0.1-0.2-0.2-0.5-0.3-0.7C127.3,457,127.2,456.4,127,455.9z M105,450.4
	c0.1-2.3,0.3-4.7,0.4-7.2c0.3-4.6,0.5-9.4,0.7-14.3c0.1-1,0.1-2,0.2-3c0.9,0,1.8,0,2.6,0c0.3,0,0.6,0,0.9,0c0.2,0.7,0.5,1.6,0.8,2.8
	c0.7,2.4,1.5,5.7,2,9.1c0.5,3.3,0.8,6.6,0.7,9.2c0,1.2-0.1,2.1-0.1,2.7c0,0.2,0,0.3,0,0.5c-0.1,0.7-0.1,1.2-0.1,1.2h-2.7v-0.8H105z
	 M98,450.4v4.6h-18c0.1-0.7,0.1-1.3,0.1-2l15.9-0.3c0,0-1.4-1.1-2-4.8c0-0.3,0-0.7,0-1c-0.1-2.5,0.2-5.9,0.7-9.3
	c0.5-3.3,1.3-6.6,2-9.1c0.3-1.1,0.6-2.1,0.8-2.8c0.3,0,0.6,0,0.9,0c0.9,0,1.8,0,2.6,0c0.1,1,0.1,2,0.2,3c0.2,4.9,0.4,9.7,0.7,14.3
	c0.1,2.5,0.3,4.9,0.4,7.2H98z M79.1,461.4c0.5,0.7,1,1.8,1.2,2.9c0.2,1.1,0.3,2.2,0.2,3l-0.7,0c-0.1-0.9-0.7-4-1.6-5.2
	c-0.5-0.7-1.1-1.3-1.5-1.7c0.5,0,1-0.1,1.4-0.1C78.1,460.3,78.6,460.7,79.1,461.4z M44.5,467.5c0.1-0.9,0.3-2,0.8-3.1
	c0.4-1.1,1.1-2,1.6-2.6c0.3-0.3,0.5-0.5,0.7-0.6c0.2-0.1,0.2-0.1,0.3-0.2l0,0c1.2,0,2.3,0.1,3.5,0.1c0.9,0,1.8,0,2.7,0l1.4,6.7
	l1.4-6.7c0.7,0,1.5,0,2.2,0l-1.3,6.7l-13.4,0.3C44.4,467.9,44.4,467.7,44.5,467.5z M39.3,468.2c0-0.2,0-0.4,0.1-0.7
	c0.1-0.9,0.3-2,0.8-3.1c0.4-1.1,1.1-2,1.6-2.6c0.3-0.3,0.5-0.5,0.7-0.6c0.2-0.1,0.2-0.1,0.3-0.2l-0.1-0.2c1.1,0,2.1,0.1,3.2,0.1
	c0,0,0,0,0,0.1c-0.5,0.8-1.1,2-1.3,3.2c-0.3,1.2-0.3,2.4-0.3,3.3c0,0.2,0,0.4,0,0.6L39.3,468.2z M39.6,455.4h9.9l4.9,4.2
	c-1.1,0-2.2,0-3.2,0c-1.4,0-2.9,0.1-4.3,0.1l0,0c0,0,0,0,0,0c-1.5,0.1-2.9,0.1-4.4,0.2c-0.6-0.8-1.2-1.5-1.7-2.4
	C40.3,456.8,40,456.1,39.6,455.4z M33,443.1v-16.5c0-0.2,0-0.4,0-0.6l16.2,2.9l-13.7-1.1c-0.1,0.9-0.2,1.9-0.2,2.9v16.5
	c0,2.4,0.5,4.6,1.3,6.7h0C34.2,450.7,33,447,33,443.1z M62,431.3l-2.1-0.5l2.1,0.4C62,431.2,62,431.2,62,431.3z M10.2,402.5v1.6H3.3
	c0-0.2,0-0.4,0.1-0.6c0.3-2.2,0.6-4.4,1.2-6.5c0.1-0.5,0.3-1.1,0.4-1.6l0.5-1.6c0.3-1.1,0.8-2,1.2-3c0.9-2,2-3.8,3.3-5.5
	c0.6-0.9,1.4-1.6,2.1-2.4c0.7-0.8,1.6-1.5,2.4-2.3l9.7-9.3c3.3-3.1,6.5-6.3,9.7-9.4l9.6-9.4c6.4-6.4,12.8-12.6,19.1-19.1l0.2-0.2
	l0.1-0.1c1.3-2,2.2-3.7,3-5.6c0.8-1.9,1.6-3.8,2.2-5.7c0.6-1.9,1.2-3.9,1.7-5.8c0.5-2,0.9-3.9,1.3-5.9c0.4-2,0.7-4,1-6L73,298
	l1.4-11.8c0.5-3.9,1-7.9,1.4-11.8l1.3-11.8c0.3-3.3,0.7-6.6,1-9.9l0.6,27.2c-2,15-5.6,39.9-10.1,49.6C61.9,344.3,41,359.1,41,359.1
	l-25.3,24.1c0,0,17.2-14.1,23.2-15.3c-1.1,4.2-2.5,8.8-3.6,11.2c-2.3,4.8-13.2,19.5-13.2,19.5c0-1.2,38.1-0.6,38.1-0.6s4.9-7.4,9-12
	c-2.3,4.3-4.6,10.8-6,16.6H10.2z M30.4,354.6c0-2.6,0.2-5.1,1.2-7.4c0.2-0.6,0.5-1.1,0.8-1.6c0.3-0.5,0.7-1,1.1-1.5
	c0.8-1,1.6-2,2.4-3c1.7-2,3.4-3.9,5.1-5.8l0.3-0.3l0-0.2l0.1,0v-0.1c0.3,0.1,0.6,0.2,1,0.3c0.3,0.2,0.6,0.3,0.9,0.5
	c0.3,0.2,0.6,0.5,0.9,0.8c0.2,0.3,0.5,0.6,0.7,1c0.2,0.4,0.4,0.7,0.5,1.1c0.2,0.4,0.3,0.8,0.3,1.2c0.1,0.4,0.2,0.8,0.2,1.2
	c0.1,0.8,0.1,1.6,0.1,2.2c0,0.1,0,0.2,0,0.3c-1.9,1.9-3.7,3.8-5.6,5.6l-9.4,9.7c-0.2,0.2-0.3,0.3-0.5,0.5
	C30.5,357.7,30.4,356.2,30.4,354.6z M51.4,257.6c0-22.5,0.5-40.1,0.5-40.1c-0.1-3.2-0.8-5.6-1.8-7.4l16.6-34.3
	c-1,15.2-2.2,32.2-2.3,34.7H64V226h0.3c0.1,10,0.1,20.1,0.1,30.1c-0.6,6.4-6.3,14.9-9.3,19.7c-10.9,17.2-10.4,36.9-10.3,56.5
	c-1.2,1.2-2.1,2-2.2,1.9c0.2,0.2,0.4,0.4,0.6,0.6c-0.2-0.1-0.5-0.2-0.7-0.2c-0.4-0.1-0.8-0.1-1.1-0.1l0-2.6l0.3-9.2h-0.3l0.3-59
	C47.5,264.2,50.6,260.4,51.4,257.6z M41.5,204.9l26.6-55l0,5.6c-0.3,4.5-0.8,11.8-1.3,19.7l-18.6,32.3C46,205.6,43.5,205,41.5,204.9
	z M68.8,101.4l-0.2,25.8l-0.2-25.8H68.8z M68.7,96.5c0-0.1,0-0.3,0-0.4c0,0.2,0,0.4,0,0.6h0C68.7,96.6,68.7,96.6,68.7,96.5z
	 M99.1,2.8c0.2-0.2,0.4-0.4,0.7-0.5c-0.7,0.6-1.2,1.3-1.5,2c0-0.1,0-0.1,0-0.2C98.5,3.6,98.8,3.1,99.1,2.8z M106,3.9
	c0.2,0.5,0.2,1.1,0.2,1.7l0.2,5.9l-0.3,0.4h-3.9V1.6c1,0,2.1,0.3,2.9,1C105.5,3,105.8,3.4,106,3.9z M90.2,102.7
	c-4.1-0.5-8.1-1-12.2-1.3h52.2c0,0.5,0.1,1.2,0.1,1.9L90.2,102.7z M65.6,224.5h5.7V212h-5.7V224.5z M74,96.6c0-1.3,0.1-2.8,0.1-4.6
	c0-0.9,0-1.8,0.1-2.8c0.1-1,0.2-2,0.2-3.1c0.2-2.2,0.4-4.6,0.6-7.1c0.3-2.5,0.7-5.1,1-7.8c0.3-2.7,1-5.5,1.5-8.3
	c0.2-1.4,0.6-2.8,0.9-4.3c0.3-1.4,0.7-2.8,1-4.3c0.7-2.8,1.6-5.6,2.4-8.4c1-2.7,1.8-5.4,2.9-8c1-2.5,2-5,3.2-7.3
	c1-2.3,2.2-4.4,3.2-6.3c1.1-1.9,2.1-3.7,3.1-5.2c0.8-1.3,1.7-2.5,2.4-3.4c0.8-0.9,1.4-1.6,1.9-2c0.1-0.1,0.2-0.2,0.2-0.2h1.7
	c-0.1,0.1-0.3,0.3-0.5,0.5c-0.4,0.5-1.1,1.3-1.8,2.2c-0.8,1-1.7,2.2-2.6,3.7c-1,1.4-2,3.2-3.2,5c-1,1.9-2.2,3.9-3.3,6.2
	c-1.2,2.2-2.2,4.6-3.3,7.1c-1.1,2.5-2,5.2-3,7.9c-0.8,2.7-1.8,5.5-2.5,8.3c-0.4,1.4-0.7,2.8-1.1,4.2c-0.4,1.4-0.7,2.8-1,4.2
	c-0.5,2.8-1.2,5.6-1.6,8.3c-0.4,2.7-0.8,5.3-1.2,7.8c-0.2,2.5-0.5,4.9-0.7,7c-0.1,1.1-0.2,2.1-0.3,3.1c-0.1,1-0.1,1.9-0.1,2.8
	C74.2,93.8,74.1,95.3,74,96.6C74.1,96.6,74.1,96.6,74,96.6L74,96.6C74,96.6,74,96.6,74,96.6z M92.3,96.7c0-4.3,0-12.3,0.5-25.8
	c0.8-20.7,7.9-51,9.1-56.2c-0.2,0.5-0.5,1.1-0.8,1.8c-0.5,1.1-1,2.5-1.6,4.1C99,22.2,98.4,24,97.8,26c-0.6,2-1.3,4.2-1.9,6.5
	c-0.6,2.3-1.2,4.8-1.8,7.3c-0.5,2.6-1.2,5.2-1.6,7.9c-0.5,2.7-1,5.5-1.4,8.2c-0.4,2.8-0.8,5.5-1.1,8.3c-0.3,2.7-0.7,5.4-0.9,8
	c-0.2,2.6-0.4,5.1-0.6,7.5c-0.1,2.4-0.3,4.7-0.4,6.8c-0.3,4.1-0.3,7.6-0.4,10.1h-0.1c0.1-2.4,0-5.9,0.2-10.1
	c0.1-2.1,0.2-4.4,0.3-6.8c0.2-2.4,0.3-4.9,0.5-7.6c0.1-2.6,0.5-5.3,0.7-8.1c0.2-2.8,0.6-5.5,1-8.3c0.3-2.8,0.8-5.6,1.2-8.3
	c0.4-2.7,1-5.4,1.5-8c0.6-2.6,1.1-5.1,1.7-7.4c0.6-2.3,1.2-4.6,1.8-6.6c0.6-2,1.2-3.9,1.8-5.5c0.6-1.6,1.1-3,1.6-4.2
	c0.4-1,0.8-1.8,1-2.4h0.7c0.1,0.1,0.1,0.3,0.2,0.5c0.3,0.6,0.7,1.4,1.1,2.6c0.5,1.1,1,2.5,1.6,4.1c0.6,1.6,1.2,3.4,1.8,5.4
	c0.6,2,1.3,4.2,1.9,6.5c0.6,2.3,1.2,4.8,1.8,7.3c0.5,2.6,1.2,5.2,1.6,7.9c0.5,2.7,1,5.5,1.4,8.2c0.4,2.8,0.8,5.5,1.1,8.3
	c0.3,2.7,0.7,5.4,0.9,8c0.2,2.6,0.4,5.1,0.6,7.5c0.1,2.4,0.3,4.7,0.4,6.8c0.3,4.1,0.3,7.6,0.4,10.1H92.3z M103.6,13.5
	c0.1,0.1,0.3,0.3,0.5,0.5c0.2,0.3,0.5,0.6,0.9,1c0.8,1.7,3.3,4.9,5.1,7.3c0.5,0.8,1.1,1.7,1.6,2.7c1,1.9,2.2,3.9,3.3,6.2
	c1.2,2.2,2.2,4.6,3.3,7.1c1.1,2.5,2,5.2,3,7.9c0.8,2.7,1.8,5.5,2.5,8.3c0.4,1.4,0.7,2.8,1.1,4.2c0.4,1.4,0.7,2.8,1,4.2
	c0.5,2.8,1.2,5.6,1.6,8.3c0.4,2.7,0.8,5.3,1.2,7.8c0.2,2.5,0.5,4.9,0.7,7c0.1,1,0.2,1.9,0.3,2.7c0,0.5,0.1,1,0.1,1.5
	c0,0.6,0,1.2,0.1,1.8c0.1,1.8,0.1,3.3,0.2,4.6c0,0,0,0,0,0.1h-13.6c-0.1-2.4,0-5.9-0.2-10.1c-0.1-2.1-0.2-4.4-0.3-6.8
	c-0.2-2.4-0.3-4.9-0.5-7.6c-0.1-2.6-0.5-5.3-0.7-8.1c-0.2-2.8-0.6-5.5-1-8.3c-0.3-2.8-0.8-5.6-1.2-8.3c-0.4-2.7-1-5.4-1.5-8
	c-0.6-2.6-1.1-5.1-1.7-7.4c-0.6-2.3-1.2-4.6-1.8-6.6c-0.6-2-1.2-3.9-1.8-5.5c-0.6-1.6-1.1-3-1.6-4.2c-0.4-1-0.8-1.8-1-2.4H103.6z
	 M79.7,226.6c-0.1,2-0.1,3.7-0.2,5.1c-0.1,0.1-0.2,0.2-0.2,0.3C79.4,231.2,79.5,229.3,79.7,226.6z M114,172.5l-13.2,0.6
	c0.9-9,2-13.3,2.5-15C107.4,158.7,111.3,163.9,114,172.5z M119.1,186.4c0.3,0.8,0.5,1.6,0.8,2.4c0.2,0.8,0.5,1.6,0.8,2.4
	c0.5,1.7,0.9,3.5,1.2,5.3c0.4,1.8,0.7,3.7,1,5.5c1.2,7.5,2,15,2.5,20.7c0.4,4.8,0.7,8.2,0.7,9.1c-1.7-2.6-4.6-4.3-7.9-4.3h-29
	l11.3-1.4v-17.8c0,0-2.3,0.5-4.8,1.5c-2.2,0.9-7.6,3.7-9.2,4.6c0.2-0.2,0.5-0.5,0.9-0.8c0.8-0.8,2.1-1.8,3.5-2.9
	c1.5-1.1,3.3-2.1,5.3-2.9c1-0.4,2.1-0.7,3.1-0.9c1.2-0.2,2-0.3,3.4-0.3c0.9,0,2.2,0.1,3.2,0.3c1.1,0.2,2.1,0.5,3.1,0.9
	c2,0.8,3.8,1.9,5.3,2.9c0.7,0.6,1.4,1.1,2,1.6c0.6,0.5,1.1,1,1.5,1.3c0.8,0.8,1.3,1.3,1.3,1.3s0-0.2-0.1-0.5
	c-0.1-0.3-0.2-0.8-0.4-1.3c-0.4-1.1-1.2-2.7-2.4-4.3c-0.6-0.8-1.4-1.7-2.3-2.5c-0.9-0.8-1.9-1.6-3.1-2.3c-1.2-0.7-2.5-1.2-3.9-1.6
	c-1.4-0.4-2.8-0.6-4.5-0.6c-0.7,0-1.7,0.1-2.7,0.3c0.1,0,0.1-0.1,0.1-0.1s-0.8-11.5,0.5-26c0.1-1,0.2-1.9,0.3-2.8l13.8,0.6
	c0.5,1.3,1.5,4.3,2.9,8.1C118,183.4,118.5,184.9,119.1,186.4z M143.5,226v-15.6h-3.6l-0.2-33.5l2.1,3.1l16.9,28.2
	c-1.6,1.9-2.8,4.8-2.9,9.2c0,0,0.5,17.6,0.5,40.1c0.8,2.8,3.9,6.6,9.7,6.1v68.8h0.4l0,0.7c-0.4,0.1-0.9,0.2-1.5,0.4
	c-0.4,0.2-0.8,0.4-1.2,0.7c0,0,0,0,0,0l-1.6-30.8c0,0,0.7,21.1,0,27.9c-0.5,5.3-9.1,1.4-13-0.6c-0.2-0.2-0.4-0.4-0.6-0.6
	c-0.9-1.3-1.8-3-2.5-4.7c-0.8-1.7-1.5-3.5-2.1-5.3c-1.2-3.6-2.3-7.4-3.1-11.2c-0.3-1.2-0.5-2.4-0.7-3.6V226H143.5z M136.2,224.5h5.7
	V212h-5.7V224.5z M142.2,164.9c1.8-2.2,2.6-2.8,2.9-3l20.9,43c-1.7,0.1-3.6,0.5-5.4,1.6l-17.8-25.3
	C142.2,177.8,140.3,167.2,142.2,164.9z M174,344c0.4,0.5,0.7,1,1.1,1.5c0.3,0.5,0.6,1.1,0.8,1.6c0.9,2.3,1.2,4.9,1.2,7.4
	c0,1.5,0,3.1,0,4.7c-0.2-0.2-0.3-0.3-0.5-0.5l-9.4-9.7c-2.2-2.2-4.4-4.4-6.5-6.6c0.1-0.5,0.2-1.1,0.5-1.7c0.1-0.4,0.3-0.8,0.5-1.2
	c0.2-0.4,0.4-0.8,0.6-1.1c0.2-0.4,0.5-0.7,0.8-1c0.3-0.3,0.6-0.5,0.9-0.7c0.3-0.2,0.6-0.4,0.9-0.5c0.3-0.1,0.6-0.2,0.8-0.3
	c0.5-0.1,1-0.1,1.3-0.1c0.1,0,0.3,0,0.3,0c0.1,0,0.1,0,0.1,0l0,0c1.5,1.6,3,3.3,4.4,5C172.4,342,173.2,343,174,344z M193,380.5
	c0.8,0.8,1.7,1.6,2.4,2.3c0.8,0.7,1.5,1.5,2.1,2.4c1.3,1.7,2.4,3.5,3.3,5.5c1.8,3.9,2.8,8.3,3.3,12.7c0,0.2,0,0.4,0.1,0.6h-6.9v-1.6
	h-52.8c-1.5-6.3-4-13.3-6.5-17.7c-4-6.9-5.1-2.9-5.1-2.9l-0.6,6.8c-2.8-4.6-5-7.8-5.1-7.8l-0.9,0.7v-1h-22.6l0.2-40.2
	c0.5,0,1,0,1.5,0c2.6,0,5.2,0,7.6-0.1c2.4,0,4.7-0.1,6.7-0.1c0.1,0,0.2,0,0.4,0l0.2,26.4l0.1-26.4c3.5-0.1,5.8-0.2,5.8-0.2
	s-2.3-0.1-5.8-0.2l0.1-36.1c3.1-0.1,5.2-0.2,5.6-0.2l1.8,77.9l-0.1-133.1c0.6,4.8,1.2,9.5,1.9,14.3l3.3,23.6l1.6,11.8l0.8,5.9
	c0.3,2,0.6,4,1,6c0.4,2,0.8,4,1.3,5.9c0.5,2,1.1,3.9,1.7,5.9c0.7,1.9,1.4,3.9,2.2,5.7c0.9,1.9,1.7,3.7,3,5.7l0.1,0.1l0.2,0.2
	c6.3,6.4,12.7,12.7,19.1,19.1l9.6,9.4c3.2,3.1,6.4,6.3,9.7,9.4L193,380.5z M93.1,422.9c-3.3,0.1-6.5,0.3-9.1,0.5
	c-5.4,0.4-8.9,0.9-8.9,0.9s3.6,0.5,8.9,0.9c1.5,0.1,3.1,0.2,4.8,0.3v18.6H68.7l-1.1-30.2c0-0.1-0.5-6.2,3.9-15
	c1.6-3.1,3.3-6.2,4.8-8.8c-0.9,2.9-2.8,9.3-4.4,15.3c-2.2,8.1-1.5,16.5-1.5,16.5s13.8-1.3,19.6-1.5c4.6-0.2,9-0.3,10.6-0.4
	c0,0.5,0.1,1,0.1,1.6c0,0.4,0,0.8,0.1,1.1c-0.8,0-1.6,0-2.4,0C96.5,422.8,94.8,422.9,93.1,422.9z M62.2,438L62.2,438
	c0,0.2-3.5,10.4-3.5,15c0,0.1-0.1,0.2-0.1,0.3l-0.1,0.4l-7.6-1.9v-20.7l11,0.8C62.1,435.5,62.2,438,62.2,438z M81,381.3l-0.1,0l0,0
	l0,0l0,0c0,0,0-2.5,0-6.8L81,381.3z M125.2,266.8c-0.9,0-2.6-0.1-4.7-0.2l0.1-28.3c0.4-0.6,1-1,1.6-1.2c0.8-0.2,1.6,0,2.3,0.5v3.5
	h0.1L125.2,266.8z M104,303.8c0.4,0,0.9,0,1.3,0c2.6,0,5.2,0,7.6-0.1c2.4,0,4.7-0.1,6.7-0.1c0,0,0,0,0.1,0l0.3,36.1
	c-0.1,0-0.2,0-0.4,0c-2,0-4.2-0.1-6.7-0.1c-2.4,0-5,0-7.6-0.1c-0.5,0-1,0-1.5,0L104,303.8z M97.7,339.6c-2.4,0-4.7,0.1-6.7,0.1
	c-0.4,0-0.8,0-1.2,0c-0.2-11.1-0.3-23.8-0.3-36.2c0.5,0,1,0,1.5,0c2,0,4.2,0.1,6.7,0.1c1.8,0,3.6,0,5.5,0l0.2,35.8
	C101.4,339.6,99.5,339.6,97.7,339.6z M104.2,267.3c0.4,0,0.8,0,1.1,0c2.6,0,5.2,0,7.6-0.1c2.3,0,4.5-0.1,6.4-0.1l0.3,36.1
	c0,0,0,0-0.1,0c-2,0-4.2-0.1-6.7-0.1c-2.4,0-5,0-7.6-0.1c-0.4,0-0.9,0-1.3,0L104.2,267.3z M103,266.5c-1.8,0-3.6,0-5.3,0
	c-2.4,0-4.7,0.1-6.7,0.1c-0.6,0-1.1,0-1.6,0c0-12.2,0-20.4,0-20.4s0.4-5.3,3.4-8.8c2.4-2.8,4.7-3.3,10-3.6L103,266.5z M119.2,242.9
	l0.2,23.7c-1.9,0-4.1-0.1-6.4-0.1c-2.4,0-5,0-7.6-0.1c-0.4,0-0.8,0-1.1,0l0.2-32.7c0.9,0,1.9-0.1,2.9-0.1
	C114.7,233.4,118.3,240.7,119.2,242.9z M89.5,303.3c-0.1-13.2-0.1-26.1-0.1-36.2c0.5,0,1,0,1.6,0c2,0,4.2,0.1,6.7,0.1
	c1.7,0,3.5,0,5.3,0l0.2,35.8c-1.9,0-3.7,0-5.5,0c-2.4,0-4.7,0.1-6.7,0.1C90.5,303.2,90,303.2,89.5,303.3z M66.9,438l0,0.3
	c-0.4,0.3-0.9,0.6-1.2,1C66.1,438.7,66.5,438.3,66.9,438L66.9,438z M74.9,445.7c0.2,0.8,1.2,5,0.6,7.7c-0.4,1.9-1.3,3.2-1.8,3.8
	c-1.6-0.5-3.1-1-4.7-1.5c-2.9-0.9-5.9-1.8-8.8-2.6c0.2-1.2,0.5-2.4,0.8-3.6c0.4-1.4,0.9-2.8,1.4-4.1c0.3-0.7,0.6-1.3,0.9-2
	c0.3-0.7,0.7-1.3,1.1-1.9c0.4-0.6,0.8-1.2,1.3-1.7c0.2-0.3,0.5-0.6,0.7-0.8l0.3-0.3l0.2,6.5l0.8,0v0.8H74.9z M81,380.6v0.7
	l-0.1-141.9v-2.2c0-3.5,2.8-6.3,6.3-6.3h1c-1.6,1.1-4.8,3.7-4.8,7.5c0,1.4,0,12.7,0,28.3l4.6,0.2c-2.1,0.1-3.4,0.1-3.4,0.1
	s1.3,0.1,3.4,0.1l-4.6,0.2c0,10.6,0,23.2,0,35.9l4.6,0.2c-2.1,0.1-3.4,0.1-3.4,0.1s1.3,0.1,3.4,0.1l-4.6,0.2c0,12.3,0,24.8,0,35.9
	l4.6,0.2c-2.1,0.1-3.4,0.1-3.4,0.1s1.3,0.1,3.4,0.1l-4.6,0.2c0,21.4,0,37.7,0,37.7l18.6,0.4c0,0-8.4-1.1-10.6-4.6
	c-0.7-1.1-1.2-15.2-1.5-33.6c0.4,0,0.8,0,1.2,0c2,0,4.2,0.1,6.7,0.1c1.8,0,3.8,0,5.7,0l0.2,40.2H81z M126.1,303.4
	c-0.4,0-2.5-0.1-5.6-0.2l0.1-36.2c2.1-0.1,3.7-0.1,4.7-0.2L126.1,303.4z M90,445.5l-0.4,0v-0.7H90L90,445.5z M118.7,444.1v-18.6
	c1.6-0.1,3.1-0.2,4.5-0.3c5.4-0.4,8.9-0.9,8.9-0.9s-3.6-0.5-8.9-0.9c-2.7-0.2-5.8-0.4-9.1-0.5c-1.7,0-3.4-0.1-5.2-0.1
	c-0.8,0-1.6,0-2.4,0c0-0.4,0-0.8,0.1-1.1c0.2-2.4,0.3-4.7,0.3-7c0-4.6-0.3-8.8-0.8-12.5c-0.2-1.8-0.4-3.5-0.7-5
	c-0.2-1.5-0.5-2.8-0.7-3.8c-0.4-2.1-0.8-3.3-0.8-3.3h-0.5l0.1-1.3l-2.1,0v-5.2h-8.1v5.1l-7.8-0.1v-6.4h2.1v3.4h4.1v-3.4h11.1
	l0.7,5.2l0.7-5.2h11.1v3.4h4.1v-3.4h6.5c1.1,1.6,6,8.7,10,16.7c4.4,8.8,3.9,15,3.9,15.1l-0.9,24.4c-0.2-0.1-0.4-0.3-0.5-0.4l0.5,0.5
	l-0.2,5.6H118.7z M203.9,416.1l-28.2,7.2l-0.1-0.5l-1,0.2l-0.1-0.2l-7.4,2.1l-10.7,2.7v0.4l-11,3.2c0.2-6.1,0.4-14.7,0.4-18.8
	c0-1.4-0.2-3.2-0.5-5.1h51.9v-1.6h7c0.1,1.5,0.2,3,0.2,4.5c0,2.2-0.1,4.5-0.4,6.7c1-4.4,1.5-8.9,1.4-13.5c-0.1-4.6-0.8-9.2-2.5-13.5
	c-0.8-2.2-1.9-4.3-3.2-6.3c-0.7-1-1.4-1.9-2.2-2.8c-0.8-0.9-1.5-1.7-2.3-2.5l-9.3-9.8c-2.9-3-5.8-6-8.7-9c0.1-1.6,0.3-3.2,0.4-4.9
	c0.2-2.6,0.2-5.3-0.7-7.8c-0.2-0.6-0.5-1.3-0.8-1.9c-0.3-0.6-0.7-1.2-1-1.7c-0.7-1.1-1.5-2.2-2.2-3.2c-1.4-2-2.9-3.9-4.4-5.8
	l0.1-1.7h0.4v-69h-1.6c6.8-1.5,8.3-8.3,8.3-8.3s0-30.3-0.5-36.2c-0.1-1.5-0.5-3.1-1.1-4.8c-1.4-0.2-3.2-0.3-5.3-0.1
	c-1.1,0.1-2.4,0.4-3.1,1c-0.1,0-0.2,0.2-0.2,0.2c-0.2,0.2-0.1,0.1-0.1,0.3c-0.1,0.2-0.2,0.6-0.3,0.9c-0.2,0.7-0.3,1.4-0.4,2.2
	c-0.4,3.1-0.6,6.6-0.8,10c-0.3,6.9-0.4,13.7-0.4,18.9c0,5.2,0,8.6,0,8.6s-0.2-3.4-0.5-8.6c-0.3-5.2-0.6-12-0.7-18.9
	c0-3.5-0.1-6.9,0.2-10.2c0.1-0.8,0.1-1.6,0.3-2.5c0.1-0.4,0.2-0.8,0.3-1.3c0-0.2,0.3-0.7,0.3-0.7c0.2-0.3,0.3-0.5,0.6-0.7
	c1.5-1.4,3.2-1.7,4.5-1.9c1.7-0.2,3.2-0.2,4.4-0.2c-1.5-3.3-3.1-5.8-3.1-5.8s-0.1,0-0.2,0l-29.9-54.7l-0.3-0.6l-0.4-49.2l-0.8,109.9
	h-3.6V226h3.6v15c-0.5,1.8-1.8,5.8-3.9,7.9c-2.8,2.8-8.9-37.4-8.9-37.4l0.9,20.7c-0.1-0.1-0.1-0.2-0.2-0.3c0-1-0.1-4.4-0.3-9.2
	c-0.2-5.7-0.6-13.3-1.4-20.9c-0.2-1.9-0.4-3.8-0.7-5.7c-0.3-1.9-0.6-3.7-1-5.5c-0.2-0.9-0.5-1.8-0.7-2.6c-0.2-0.8-0.5-1.6-0.7-2.4
	c-0.5-1.6-0.9-3.1-1.3-4.4c-1.6-5.5-2.7-9.1-2.7-9.1l-0.2,0.1c-3.4-11-8.7-17.3-14.7-17.3c-6.1,0-11.5,6.5-14.8,17.9l0.1,0
	c-0.4,1.3-1.3,4.4-2.5,8.5c-0.4,1.4-0.8,2.8-1.3,4.4c-0.2,0.8-0.5,1.6-0.7,2.4c-0.2,0.9-0.4,1.7-0.7,2.6c-0.4,1.8-0.7,3.6-1,5.5
	c-0.3,1.9-0.5,3.8-0.7,5.7c-0.8,7.6-1.2,15.2-1.4,20.9c-0.2,4.8-0.2,8.3-0.3,9.2c-1,1.5-1.6,3.3-1.6,5.2v4.1h0.1l0.1,4.9
	c-1,5.4-2.1,10.8-3,16.2l-2,11.7c-0.7,3.9-1.3,7.8-2,11.7l-0.9,5.3l5.3-45.9c0,0-0.4-30.1,0.8-40.4c1-9.2,8.8-37.1,10.4-42.8
	c2.8-4.9,5.6-7.9,5.6-7.9c11.5-7,19.2,1.2,19.2,1.2c-6.5-8.6-15.9-7-19.3-6c0-1.1-0.1-2.3-0.1-3.5c3.4,0,6.9,0.1,10.4,0.1
	c4.2,0,8.4,0,12.4-0.1c3.9,0,7.6-0.2,10.8-0.3c3.2-0.1,5.8-0.2,7.6-0.3c1.8-0.1,2.9-0.2,2.9-0.2s-1.1-0.1-2.9-0.2
	c-1.8-0.1-4.5-0.2-7.6-0.3c-3.2-0.1-6.8-0.2-10.8-0.2c-3.9-0.1-8.2-0.1-12.4-0.1c-3.5,0-7.1,0-10.5,0.1c-0.7-14.1-1.3-29.5,9.5-39.2
	l29.2-1.5c0.2,5.3,0.3,14.7-0.7,22.8c-1.4,12-23,16.3-23,16.3l29.3-2.4l0.5-40.4L133,68.8c0,0-5.3-22.1-10.1-32.7
	c-1.4-3.1-3.3-6.4-5.3-9.6c0.7,1,1.4,2,2,3.1c0.7,1.1,1.4,2.2,2.1,3.4c0.7,1.2,1.3,2.4,2,3.7c1.4,2.5,2.5,5.2,3.8,7.9
	c1.2,2.7,2.2,5.6,3.3,8.4c0.9,2.9,1.9,5.8,2.7,8.6c0.7,2.9,1.5,5.7,2.1,8.5c0.5,2.8,1,5.5,1.5,8.1c0.4,2.6,0.6,5,0.9,7.3
	c0.3,2.3,0.5,4.3,0.6,6.2c0.1,1.8,0.2,3.5,0.2,4.8c0.1,2.7,0.2,4.2,0.2,4.2s-0.1-1.5-0.1-4.2c0-1.3-0.1-2.9-0.2-4.8
	c0-1.9-0.2-3.9-0.5-6.2c-0.3-2.3-0.4-4.7-0.8-7.3c-0.4-2.6-0.9-5.3-1.4-8.1c-0.6-2.8-1.3-5.7-2-8.6c-0.8-2.9-1.7-5.8-2.6-8.7
	c-1.1-2.9-2.1-5.7-3.2-8.5c-1.3-2.7-2.3-5.5-3.7-8c-0.7-1.3-1.3-2.5-2-3.7c-0.7-1.2-1.4-2.3-2.1-3.5c-0.6-1.1-1.4-2.2-2.1-3.2
	c-0.7-1-1.3-2-2-3c-1.4-1.8-2.6-3.5-3.8-5c-1.2-1.5-2.3-2.6-3.2-3.6c-0.9-1-1.7-1.7-2.2-2.2c-0.5-0.5-0.8-0.7-0.8-0.7l-0.2,0.2
	l0.2-5.8c0-0.6,0.1-1.2-0.1-1.8c-0.2-0.6-0.5-1.2-1-1.6c-0.9-0.9-2.2-1.3-3.4-1.4c-1.3,0-2.6,0.4-3.6,1.2c-0.5,0.4-0.9,1-1.1,1.6
	c-0.1,0.3-0.2,0.8-0.2,1l0,0.9l-0.1,5.3c-0.1,0.1-0.3,0.3-0.6,0.6c-0.5,0.5-1.2,1.3-2.1,2.4c-0.8,1-1.9,2.3-2.9,3.8
	c-1.1,1.5-2.2,3.3-3.5,5.1c-1.1,2-2.5,4-3.6,6.4c-0.6,1.2-1.2,2.3-1.8,3.6c-0.6,1.2-1.1,2.5-1.7,3.8c-0.6,1.3-1.2,2.6-1.7,4
	c-0.5,1.4-1.1,2.7-1.6,4.1c-0.9,2.8-1.9,5.7-2.8,8.5c-0.7,2.9-1.6,5.8-2.2,8.7c-0.6,2.9-1.2,5.7-1.7,8.5c-0.4,2.8-0.8,5.5-1.1,8
	c-0.3,2.6-0.4,5-0.6,7.2c-0.2,2.2-0.4,4.3-0.4,6.1c0,1.8-0.1,3.4-0.1,4.7c0,0.1,0,0.1,0,0.2h-0.1v3.9c0,0,0,0,0,0v0v0.1v-0.1
	l-0.4,49.3l-30.2,55.3c-0.1,0-0.2,0-0.2,0s-1.6,2.6-3.1,5.8c1.3,0,2.7,0,4.5,0.2c1.4,0.3,3,0.5,4.5,1.9c0.2,0.2,0.3,0.3,0.6,0.7
	c0,0.1,0.3,0.6,0.3,0.7c0.2,0.5,0.2,0.9,0.3,1.3c0.1,0.8,0.2,1.6,0.3,2.5c0.2,3.3,0.2,6.7,0.2,10.2c-0.1,6.9-0.4,13.8-0.7,18.9
	c-0.3,5.2-0.5,8.6-0.5,8.6s0-3.4,0-8.6c0-5.2-0.1-12-0.4-18.9c-0.2-3.4-0.4-6.9-0.8-10c-0.1-0.8-0.2-1.5-0.4-2.2
	c-0.1-0.3-0.2-0.7-0.3-0.9c-0.1-0.2,0,0-0.1-0.3c0,0.1-0.1-0.1-0.2-0.2c-0.7-0.6-2-0.9-3.1-1c-2.1-0.2-3.9,0-5.3,0.1
	c-0.6,1.6-1,3.2-1.1,4.8c-0.5,5.9-0.5,36.2-0.5,36.2s1.5,6.8,8.3,8.3l-1.6,0l-0.4,71.4h0.3c-1.3,1.7-2.6,3.4-3.9,5.2
	c-0.8,1.1-1.5,2.1-2.2,3.2c-0.4,0.5-0.7,1.1-1,1.7c-0.3,0.6-0.6,1.2-0.8,1.9c-0.8,2.6-0.8,5.3-0.7,7.8c0.1,1.6,0.3,3.2,0.4,4.9
	c-2.9,3-5.8,6-8.7,9l-9.3,9.8c-0.8,0.8-1.5,1.6-2.3,2.5c-0.7,0.9-1.6,1.8-2.2,2.8c-1.3,2-2.4,4.1-3.2,6.3c-0.4,1.1-0.8,2.2-1.1,3.3
	L3,394.8c-0.1,0.6-0.2,1.1-0.3,1.7c-0.4,2.3-0.6,4.6-0.7,6.8c0,2.3,0,4.6,0.3,6.8c0.2,2.3,0.6,4.5,1.1,6.7c-0.3-2.2-0.4-4.5-0.3-6.7
	c0-1.5,0.1-3,0.2-4.5h7v1.6h51.9c-0.2,1-0.3,2-0.4,2.9l-21.5-0.3L37.1,422l22.2,6c0,0,1.3-8.3,2.3-12.7c0.1,4.5,0.2,11,0.4,15.8
	l-11-3.2v-0.4l-10.7-2.7l-7-2l3.6-13.7l-16.9-0.9l-2.5,9.4l14.4,5.5l0,0.2l-28.2-7.2l-0.4,1.5l28.3,7.2c-0.1,0.6-0.1,1.2-0.1,1.8
	v16.5c0,4.4,1.4,8.5,4.1,12l0.2,0.3h3.7c0.2,0.8,0.5,1.6,0.8,2.3c0.3,0.8,0.8,1.5,1.2,2.2c0,0,0,0-0.1,0.1c-0.2,0.2-0.5,0.5-0.8,0.9
	c-0.5,0.8-1.1,2-1.3,3.2c-0.3,1.2-0.3,2.4-0.3,3.3c0,0.9,0.1,1.5,0.1,1.5s0-0.3,0.1-0.8l4.9,0.1c0,0.4,0.1,0.7,0.1,0.7s0-0.3,0-0.7
	l32.5,0.6c0,0.1,0,0.1,0,0.1s0,0,0-0.1l3.5,0.1l0,0l1.6,0.1c0,0,0-0.6-0.1-1.6c-0.1-0.9-0.4-2.2-0.8-3.3c-0.4-1.2-1.1-2.2-1.7-2.9
	c-0.6-0.7-1.1-0.9-1.1-1c0,0,0,0,0.1,0c-0.1,0-0.2,0-0.4,0l0.4,0l0.2-0.4l0,0l0.2-0.4c0,0,0,0,0,0L79,459l-0.1,0
	c0-0.1,0.1-0.2,0.1-0.3c0.1-0.3,0.2-0.6,0.3-0.8c0.1-0.4,0.2-0.8,0.3-1.2h19.9V452h2.7c0.1,1.3,0.2,2.5,0.2,3.6
	c0.4,7.3,0.8,12.2,0.8,12.2h0.6c0,0,0.4-4.9,0.8-12.2c0.1-1.1,0.1-2.4,0.2-3.6h3.9v4.6h17.3c0.1,0.4,0.2,0.8,0.3,1.2
	c0.1,0.3,0.2,0.6,0.3,0.8c0.1,0.3,0.2,0.5,0.4,0.9l0.2,0.4l0.3-0.1v0.5h1.7c1.5,0.2,3,0.2,4.5,0.3c1.2,0.1,2.5,0.1,3.7,0.2l1.4,6.8
	l-12.6-0.2v1.6l36.8-0.7c0,0.4,0,0.7,0,0.7s0-0.3,0.1-0.7l4.9-0.1c0,0.5,0.1,0.8,0.1,0.8s0.1-0.6,0.1-1.5c0.1-0.9,0-2.1-0.3-3.3
	c-0.2-1.2-0.8-2.4-1.3-3.2c-0.3-0.4-0.5-0.7-0.8-0.9c0,0,0,0-0.1-0.1c0.5-0.7,0.9-1.5,1.2-2.2c0.3-0.7,0.6-1.5,0.8-2.3h3.7l0.2-0.3
	c2.7-3.5,4.1-7.6,4.1-12v-16.5c0-0.6,0-1.1-0.1-1.8l28.3-7.2L203.9,416.1z"/>
<linearGradient id="SVGID_1_" gradientUnits="userSpaceOnUse" x1="350.5" y1="304" x2="350.5" y2="3" gradientTransform="matrix(1 0 0 -1 -203 764)">
	<stop  offset="0" style="stop-color:#FFFFFF;stop-opacity:0.28"/>
	<stop  offset="0.2708" style="stop-color:#FFFFFF;stop-opacity:0.13"/>
	<stop  offset="1" style="stop-color:#FFFFFF;stop-opacity:0"/>
</linearGradient>
<path class="st1" d="M126,467c0-3.9,3.1-7,7-7h29c3.9,0,7,3.1,7,7v294h-43V467z"/>
<linearGradient id="SVGID_2_" gradientUnits="userSpaceOnUse" x1="263.5" y1="304" x2="263.5" y2="3" gradientTransform="matrix(1 0 0 -1 -203 764)">
	<stop  offset="0" style="stop-color:#FFFFFF;stop-opacity:0.28"/>
	<stop  offset="0.2708" style="stop-color:#FFFFFF;stop-opacity:0.13"/>
	<stop  offset="1" style="stop-color:#FFFFFF;stop-opacity:0"/>
</linearGradient>
<path class="st2" d="M39,467c0-3.9,3.1-7,7-7h29c3.9,0,7,3.1,7,7v294H39V467z"/>
</svg>
