<svg width="25" height="20" viewBox="0 0 25 20" fill="none" xmlns="http://www.w3.org/2000/svg">
<path fill-rule="evenodd" clip-rule="evenodd" d="M21.6005 0.257023C21.1472 0.405835 16.5518 1.89752 11.3886 3.57186C6.22544 5.24617 1.8525 6.66874 1.67102 6.73307C1.25966 6.87886 0.973222 7.11955 0.801497 7.46379C0.628994 7.80956 0.620934 8.33335 0.783272 8.64554C0.916393 8.90146 1.17274 9.16884 1.39168 9.2801C1.48469 9.32738 2.68791 9.85253 4.06546 10.4471C5.44301 11.0417 6.57709 11.535 6.58565 11.5434C6.59417 11.5519 6.95099 13.1566 7.37856 15.1095C7.80613 17.0624 8.19299 18.7345 8.23824 18.8253C8.41418 19.1784 8.8292 19.2938 9.19055 19.0901C9.2913 19.0334 10.2433 18.3445 11.3062 17.5592L13.2386 16.1316L15.4733 17.9319C16.7025 18.9221 17.8084 19.7862 17.9308 19.8522C18.2258 20.0109 18.6268 20.0443 18.99 19.9403C19.3603 19.8343 19.784 19.4225 19.8963 19.0592C19.9385 18.9228 20.9031 14.9163 22.0397 10.1557C24.3083 0.654997 24.1883 1.24542 23.9457 0.776084C23.6993 0.299444 23.2866 0.0340529 22.7454 0.00416428C22.4512 -0.0120648 22.3568 0.00880766 21.6005 0.257023ZM22.7004 1.46641C22.6829 1.53461 21.7531 5.42307 20.6343 10.1074C19.5154 14.7918 18.5901 18.6342 18.578 18.6462C18.5658 18.6582 18.5197 18.6371 18.4754 18.5995C18.4312 18.5618 16.8495 17.2876 14.9605 15.768C13.0715 14.2483 11.5097 12.9908 11.4897 12.9736C11.4697 12.9564 13.0667 11.2831 15.0386 9.25512C17.0106 7.22716 18.6702 5.49456 18.7268 5.4049C18.7945 5.29765 18.8575 5.1779 18.8576 5.04077C18.8578 4.8631 18.827 4.76391 18.678 4.59859C18.5148 4.41759 18.4374 4.39365 18.1839 4.37751L17.9371 4.40279L12.5484 7.35248L7.15971 10.3021L4.59025 9.19588C3.17702 8.58743 2.03764 8.07301 2.05825 8.05272C2.09868 8.01292 22.5669 1.35362 22.6702 1.34663C22.7157 1.34356 22.7238 1.37579 22.7004 1.46641ZM14.4339 7.89792C14.4339 7.90819 13.4114 8.96818 12.1616 10.2534C10.9119 11.5386 9.86138 12.651 9.82717 12.7254C9.79296 12.7997 9.58635 13.4793 9.368 14.2356C9.14966 14.9918 8.95728 15.626 8.94048 15.645C8.91296 15.676 8.01216 11.6649 8.00355 11.4728C8.0008 11.4119 8.77887 10.9658 11.2055 9.63682C12.9685 8.67128 14.4162 7.88078 14.4224 7.8802C14.4287 7.87966 14.4339 7.88759 14.4339 7.89792ZM11.541 14.7659C11.8516 15.0149 12.1052 15.2325 12.1048 15.2493C12.1036 15.2969 10.1079 16.7591 10.0945 16.7223C10.0879 16.7042 10.2072 16.2641 10.3595 15.7442C10.8532 14.0598 10.8122 14.1734 10.8996 14.2476C10.9419 14.2835 11.2306 14.5167 11.541 14.7659Z" fill="white"/>
</svg>
