<svg width="25" height="20" viewBox="0 0 25 20" fill="none" xmlns="http://www.w3.org/2000/svg">
<path fill-rule="evenodd" clip-rule="evenodd" d="M15.7051 0.0804837C15.2357 0.185709 14.9501 0.286787 14.543 0.491708C13.2166 1.15947 12.2665 2.347 11.8876 3.81071C11.7526 4.33203 11.7062 5.32749 11.7926 5.84827L11.8414 6.14315L11.2852 6.10565C9.30209 5.97188 7.12518 5.25634 5.27588 4.13029C4.25459 3.50838 3.51429 2.91182 2.51291 1.90356C1.44401 0.827394 1.53751 0.852454 1.26147 1.56794C0.79132 2.78641 0.753536 3.89743 1.14448 5.00689C1.44872 5.87038 2.09366 6.81506 2.74319 7.34858L3.08175 7.62669H2.89504C2.54831 7.62669 1.7924 7.43956 1.32768 7.23867L0.865814 7.03897V7.33536C0.865814 8.3938 1.41999 9.67765 2.25761 10.5598C2.87799 11.2132 3.49081 11.6039 4.35215 11.8952L4.82891 12.0564L4.31573 12.1336C4.01943 12.1781 3.54666 12.1983 3.19713 12.1814C2.48645 12.1468 2.50564 12.0933 2.93306 12.9189C3.39892 13.8187 4.164 14.5906 5.03749 15.042C5.67481 15.3712 6.00878 15.4805 6.67333 15.5773L7.20176 15.6542L6.96886 15.8393C6.84079 15.9411 6.55503 16.1357 6.33387 16.2717C4.60906 17.3329 2.68055 17.8425 0.665275 17.7695C-0.220313 17.7374 -0.220313 17.7387 0.656634 18.2136C3.65571 19.8377 6.89377 20.3591 10.2521 19.7585C15.3355 18.8494 19.379 15.1997 21.0388 10.0224C21.4855 8.62901 21.7242 7.15706 21.7242 5.7955V4.99697L22.0669 4.73772C22.7102 4.25096 23.702 3.17942 24.1358 2.50252L24.2424 2.33612L23.9634 2.45673C23.3586 2.71814 21.5932 3.18784 21.5143 3.10827C21.5014 3.09523 21.6819 2.93754 21.9155 2.75792C22.5763 2.24982 23.21 1.37389 23.4844 0.589482L23.5624 0.366652L22.837 0.717001C22.1564 1.04572 21.3453 1.34324 20.6976 1.50177L20.4158 1.57076L20.1016 1.28435C19.4756 0.713816 18.7218 0.31425 17.8938 0.114076C17.3273 -0.0228784 16.2407 -0.0395244 15.7051 0.0804837Z" fill="white"/>
</svg>
