<svg width="22" height="18" viewBox="0 0 22 18" fill="none" xmlns="http://www.w3.org/2000/svg">
<path d="M19.6893 4.52567C19.7026 4.71714 19.7026 4.90861 19.7026 5.10185C19.7026 10.9898 15.1961 17.7804 6.95588 17.7804V17.7768C4.52169 17.7804 2.13806 17.0868 0.0888672 15.7792C0.442819 15.8216 0.798545 15.8427 1.15516 15.8436C3.17242 15.8454 5.13201 15.1721 6.71903 13.9324C4.80201 13.8963 3.12096 12.653 2.53371 10.838C3.20524 10.9668 3.89717 10.9404 4.55629 10.7613C2.46629 10.3413 0.962658 8.51479 0.962658 6.39361C0.962658 6.3742 0.962658 6.35567 0.962658 6.33714C1.5854 6.68214 2.28266 6.87361 2.99588 6.89479C1.02742 5.58626 0.420641 2.98155 1.60935 0.945081C3.88387 3.7289 7.23975 5.42126 10.8423 5.60038C10.4812 4.05273 10.9744 2.43096 12.1383 1.34302C13.9427 -0.344037 16.7805 -0.257566 18.4766 1.53626C19.4799 1.33949 20.4415 0.973316 21.3215 0.454493C20.9871 1.48596 20.2872 2.36214 19.3522 2.9189C20.2402 2.81479 21.1077 2.57832 21.9248 2.21743C21.3233 3.1139 20.5657 3.89479 19.6893 4.52567Z" fill="white"/>
</svg>
